<?xml version="1.0" encoding="UTF-8" standalone="no"?>
<!DOCTYPE svg PUBLIC "-//W3C//DTD SVG 1.1//EN"
 "http://www.w3.org/Graphics/SVG/1.1/DTD/svg11.dtd">
<!-- Generated by graphviz version 2.38.0 (20140413.2041)
 -->
<!-- Title: %3 Pages: 1 -->
<svg width="1092pt" height="2188pt"
 viewBox="0.00 0.00 1092.00 2188.00" xmlns="http://www.w3.org/2000/svg" xmlns:xlink="http://www.w3.org/1999/xlink">
<g id="graph0" class="graph" transform="scale(1 1) rotate(0) translate(4 2184)">
<title>%3</title>
<polygon fill="white" stroke="none" points="-4,4 -4,-2184 1088,-2184 1088,4 -4,4"/>
<!-- pej -->
<g id="node1" class="node"><title>pej</title>
<polygon fill="none" stroke="black" points="1078,-1108 986,-1108 986,-1072 1084,-1072 1084,-1102 1078,-1108"/>
<polyline fill="none" stroke="black" points="1078,-1108 1078,-1102 "/>
<polyline fill="none" stroke="black" points="1084,-1102 1078,-1102 "/>
<text text-anchor="middle" x="1035" y="-1086.3" font-family="Times,serif" font-size="14.00">perder el juego</text>
</g>
<!-- no tener la culpa -->
<g id="node2" class="node"><title>no tener la culpa</title>
<polygon fill="none" stroke="black" points="819,-2180 718,-2180 718,-2144 825,-2144 825,-2174 819,-2180"/>
<polyline fill="none" stroke="black" points="819,-2180 819,-2174 "/>
<polyline fill="none" stroke="black" points="825,-2174 819,-2174 "/>
<text text-anchor="middle" x="771.5" y="-2158.3" font-family="Times,serif" font-size="14.00">no tener la culpa</text>
</g>
<!-- no tener la culpa&#45;&gt;pej -->
<g id="edge2" class="edge"><title>no tener la culpa&#45;&gt;pej</title>
<path fill="none" stroke="black" d="M825.058,-2169.74C865.242,-2172.42 918.872,-2168.41 950,-2135 1021.18,-2058.6 1032.25,-1279.38 1033.77,-1118.83"/>
<polygon fill="black" stroke="black" points="1037.28,-1118.39 1033.87,-1108.36 1030.28,-1118.33 1037.28,-1118.39"/>
</g>
<!-- perder -->
<g id="node3" class="node"><title>perder</title>
<polygon fill="none" stroke="black" points="792.5,-2126 744.5,-2126 744.5,-2090 798.5,-2090 798.5,-2120 792.5,-2126"/>
<polyline fill="none" stroke="black" points="792.5,-2126 792.5,-2120 "/>
<polyline fill="none" stroke="black" points="798.5,-2120 792.5,-2120 "/>
<text text-anchor="middle" x="771.5" y="-2104.3" font-family="Times,serif" font-size="14.00">perder</text>
</g>
<!-- perder&#45;&gt;pej -->
<g id="edge1" class="edge"><title>perder&#45;&gt;pej</title>
<path fill="none" stroke="black" d="M798.704,-2112.92C837.877,-2118.59 911.239,-2122.42 950,-2081 1017.54,-2008.82 1031.46,-1272.76 1033.65,-1118.33"/>
<polygon fill="black" stroke="black" points="1037.15,-1118.28 1033.79,-1108.23 1030.15,-1118.18 1037.15,-1118.28"/>
</g>
<!-- trigger -->
<g id="node4" class="node"><title>trigger</title>
<polygon fill="none" stroke="black" points="792.5,-2072 744.5,-2072 744.5,-2036 798.5,-2036 798.5,-2066 792.5,-2072"/>
<polyline fill="none" stroke="black" points="792.5,-2072 792.5,-2066 "/>
<polyline fill="none" stroke="black" points="798.5,-2066 792.5,-2066 "/>
<text text-anchor="middle" x="771.5" y="-2050.3" font-family="Times,serif" font-size="14.00">trigger</text>
</g>
<!-- trigger&#45;&gt;pej -->
<g id="edge3" class="edge"><title>trigger&#45;&gt;pej</title>
<path fill="none" stroke="black" d="M798.678,-2058.9C837.819,-2064.54 911.139,-2068.33 950,-2027 1013.85,-1959.09 1030.62,-1267.18 1033.5,-1118.18"/>
<polygon fill="black" stroke="black" points="1037.01,-1118.09 1033.7,-1108.03 1030.01,-1117.96 1037.01,-1118.09"/>
</g>
<!-- get on my horse -->
<g id="node5" class="node"><title>get on my horse</title>
<polygon fill="none" stroke="black" points="818,-2018 719,-2018 719,-1982 824,-1982 824,-2012 818,-2018"/>
<polyline fill="none" stroke="black" points="818,-2018 818,-2012 "/>
<polyline fill="none" stroke="black" points="824,-2012 818,-2012 "/>
<text text-anchor="middle" x="771.5" y="-1996.3" font-family="Times,serif" font-size="14.00">get on my horse</text>
</g>
<!-- get on my horse&#45;&gt;pej -->
<g id="edge4" class="edge"><title>get on my horse&#45;&gt;pej</title>
<path fill="none" stroke="black" d="M824.105,-2007.57C864.301,-2010.28 918.415,-2006.41 950,-1973 1010.12,-1909.41 1029.71,-1262.47 1033.34,-1118.36"/>
<polygon fill="black" stroke="black" points="1036.84,-1118.22 1033.59,-1108.13 1029.84,-1118.05 1036.84,-1118.22"/>
</g>
<!-- wget -->
<g id="node6" class="node"><title>wget</title>
<polygon fill="none" stroke="black" points="792.5,-1964 744.5,-1964 744.5,-1928 798.5,-1928 798.5,-1958 792.5,-1964"/>
<polyline fill="none" stroke="black" points="792.5,-1964 792.5,-1958 "/>
<polyline fill="none" stroke="black" points="798.5,-1958 792.5,-1958 "/>
<text text-anchor="middle" x="771.5" y="-1942.3" font-family="Times,serif" font-size="14.00">wget</text>
</g>
<!-- wget&#45;&gt;pej -->
<g id="edge5" class="edge"><title>wget&#45;&gt;pej</title>
<path fill="none" stroke="black" d="M798.619,-1950.84C837.681,-1956.41 910.9,-1960.1 950,-1919 1006.42,-1859.68 1028.74,-1257.07 1033.15,-1118.36"/>
<polygon fill="black" stroke="black" points="1036.66,-1118.24 1033.47,-1108.13 1029.66,-1118.02 1036.66,-1118.24"/>
</g>
<!-- tener demasiados -->
<g id="node7" class="node"><title>tener demasiados</title>
<polygon fill="none" stroke="black" points="821,-1910 716,-1910 716,-1874 827,-1874 827,-1904 821,-1910"/>
<polyline fill="none" stroke="black" points="821,-1910 821,-1904 "/>
<polyline fill="none" stroke="black" points="827,-1904 821,-1904 "/>
<text text-anchor="middle" x="771.5" y="-1888.3" font-family="Times,serif" font-size="14.00">tener demasiados</text>
</g>
<!-- tener demasiados&#45;&gt;pej -->
<g id="edge6" class="edge"><title>tener demasiados&#45;&gt;pej</title>
<path fill="none" stroke="black" d="M827.282,-1899.65C867.033,-1901.87 919.059,-1897.3 950,-1865 1002.76,-1809.92 1027.73,-1250.97 1032.95,-1118.19"/>
<polygon fill="black" stroke="black" points="1036.45,-1118.15 1033.34,-1108.02 1029.46,-1117.88 1036.45,-1118.15"/>
</g>
<!-- mandar a alguien al frente -->
<g id="node8" class="node"><title>mandar a alguien al frente</title>
<polygon fill="none" stroke="black" points="845.5,-1856 691.5,-1856 691.5,-1820 851.5,-1820 851.5,-1850 845.5,-1856"/>
<polyline fill="none" stroke="black" points="845.5,-1856 845.5,-1850 "/>
<polyline fill="none" stroke="black" points="851.5,-1850 845.5,-1850 "/>
<text text-anchor="middle" x="771.5" y="-1834.3" font-family="Times,serif" font-size="14.00">mandar a alguien al frente</text>
</g>
<!-- mandar a alguien al frente&#45;&gt;pej -->
<g id="edge7" class="edge"><title>mandar a alguien al frente&#45;&gt;pej</title>
<path fill="none" stroke="black" d="M851.611,-1845.93C886.418,-1844.92 924.992,-1836.9 950,-1811 999.068,-1760.18 1026.62,-1245.31 1032.71,-1118.23"/>
<polygon fill="black" stroke="black" points="1036.21,-1118.29 1033.18,-1108.13 1029.22,-1117.96 1036.21,-1118.29"/>
</g>
<!-- las pausas -->
<g id="node9" class="node"><title>las pausas</title>
<polygon fill="none" stroke="black" points="801,-1802 736,-1802 736,-1766 807,-1766 807,-1796 801,-1802"/>
<polyline fill="none" stroke="black" points="801,-1802 801,-1796 "/>
<polyline fill="none" stroke="black" points="807,-1796 801,-1796 "/>
<text text-anchor="middle" x="771.5" y="-1780.3" font-family="Times,serif" font-size="14.00">las pausas</text>
</g>
<!-- las pausas&#45;&gt;pej -->
<g id="edge8" class="edge"><title>las pausas&#45;&gt;pej</title>
<path fill="none" stroke="black" d="M807.327,-1789.84C847.654,-1794.41 913.232,-1794.72 950,-1757 995.373,-1710.45 1025.39,-1239.73 1032.42,-1118.4"/>
<polygon fill="black" stroke="black" points="1035.93,-1118.27 1033.01,-1108.09 1028.94,-1117.87 1035.93,-1118.27"/>
</g>
<!-- silencio -->
<g id="node10" class="node"><title>silencio</title>
<polygon fill="none" stroke="black" points="795,-1748 742,-1748 742,-1712 801,-1712 801,-1742 795,-1748"/>
<polyline fill="none" stroke="black" points="795,-1748 795,-1742 "/>
<polyline fill="none" stroke="black" points="801,-1742 795,-1742 "/>
<text text-anchor="middle" x="771.5" y="-1726.3" font-family="Times,serif" font-size="14.00">silencio</text>
</g>
<!-- silencio&#45;&gt;pej -->
<g id="edge9" class="edge"><title>silencio&#45;&gt;pej</title>
<path fill="none" stroke="black" d="M801.048,-1735.01C840.456,-1740.14 911.058,-1742.52 950,-1703 1032.82,-1618.95 1035.35,-1227.66 1034.41,-1118.4"/>
<polygon fill="black" stroke="black" points="1037.91,-1118.13 1034.3,-1108.17 1030.91,-1118.2 1037.91,-1118.13"/>
</g>
<!-- frases colgadas -->
<g id="node11" class="node"><title>frases colgadas</title>
<polygon fill="none" stroke="black" points="815,-1694 722,-1694 722,-1658 821,-1658 821,-1688 815,-1694"/>
<polyline fill="none" stroke="black" points="815,-1694 815,-1688 "/>
<polyline fill="none" stroke="black" points="821,-1688 815,-1688 "/>
<text text-anchor="middle" x="771.5" y="-1672.3" font-family="Times,serif" font-size="14.00">frases colgadas</text>
</g>
<!-- frases colgadas&#45;&gt;pej -->
<g id="edge10" class="edge"><title>frases colgadas&#45;&gt;pej</title>
<path fill="none" stroke="black" d="M821.204,-1682.94C861.337,-1685.7 916.858,-1682.2 950,-1649 1025.51,-1573.36 1033.34,-1221.76 1033.99,-1118.55"/>
<polygon fill="black" stroke="black" points="1037.49,-1118.3 1034.04,-1108.29 1030.49,-1118.27 1037.49,-1118.3"/>
</g>
<!-- cachunk -->
<g id="node12" class="node"><title>cachunk</title>
<polygon fill="none" stroke="black" points="796.5,-1640 740.5,-1640 740.5,-1604 802.5,-1604 802.5,-1634 796.5,-1640"/>
<polyline fill="none" stroke="black" points="796.5,-1640 796.5,-1634 "/>
<polyline fill="none" stroke="black" points="802.5,-1634 796.5,-1634 "/>
<text text-anchor="middle" x="771.5" y="-1618.3" font-family="Times,serif" font-size="14.00">cachunk</text>
</g>
<!-- cachunk&#45;&gt;pej -->
<g id="edge11" class="edge"><title>cachunk&#45;&gt;pej</title>
<path fill="none" stroke="black" d="M802.562,-1627.06C842.084,-1631.85 911.051,-1633.41 950,-1595 1018.32,-1527.62 1031.15,-1214.63 1033.49,-1118.29"/>
<polygon fill="black" stroke="black" points="1036.99,-1118.22 1033.72,-1108.15 1030,-1118.07 1036.99,-1118.22"/>
</g>
<!-- pensar lo mismo que otra persona -->
<g id="node13" class="node"><title>pensar lo mismo que otra persona</title>
<polygon fill="none" stroke="black" points="866.5,-1586 670.5,-1586 670.5,-1550 872.5,-1550 872.5,-1580 866.5,-1586"/>
<polyline fill="none" stroke="black" points="866.5,-1586 866.5,-1580 "/>
<polyline fill="none" stroke="black" points="872.5,-1580 866.5,-1580 "/>
<text text-anchor="middle" x="771.5" y="-1564.3" font-family="Times,serif" font-size="14.00">pensar lo mismo que otra persona</text>
</g>
<!-- pensar lo mismo que otra persona&#45;&gt;pej -->
<g id="edge12" class="edge"><title>pensar lo mismo que otra persona&#45;&gt;pej</title>
<path fill="none" stroke="black" d="M872.79,-1573.45C900.98,-1569.93 929.501,-1560.83 950,-1541 1011.07,-1481.93 1028.69,-1208.07 1032.87,-1118.46"/>
<polygon fill="black" stroke="black" points="1036.37,-1118.39 1033.32,-1108.24 1029.38,-1118.08 1036.37,-1118.39"/>
</g>
<!-- olvidarse cosas -->
<g id="node14" class="node"><title>olvidarse cosas</title>
<polygon fill="none" stroke="black" points="815,-1532 722,-1532 722,-1496 821,-1496 821,-1526 815,-1532"/>
<polyline fill="none" stroke="black" points="815,-1532 815,-1526 "/>
<polyline fill="none" stroke="black" points="821,-1526 815,-1526 "/>
<text text-anchor="middle" x="771.5" y="-1510.3" font-family="Times,serif" font-size="14.00">olvidarse cosas</text>
</g>
<!-- olvidarse cosas&#45;&gt;pej -->
<g id="edge13" class="edge"><title>olvidarse cosas&#45;&gt;pej</title>
<path fill="none" stroke="black" d="M821.107,-1520.45C860.905,-1522.85 916.001,-1519.1 950,-1487 1003.93,-1436.09 1025.97,-1200.38 1032.1,-1118.29"/>
<polygon fill="black" stroke="black" points="1035.6,-1118.41 1032.83,-1108.19 1028.61,-1117.91 1035.6,-1118.41"/>
</g>
<!-- observar una coincidencia -->
<g id="node15" class="node"><title>observar una coincidencia</title>
<polygon fill="none" stroke="black" points="844.5,-1478 692.5,-1478 692.5,-1442 850.5,-1442 850.5,-1472 844.5,-1478"/>
<polyline fill="none" stroke="black" points="844.5,-1478 844.5,-1472 "/>
<polyline fill="none" stroke="black" points="850.5,-1472 844.5,-1472 "/>
<text text-anchor="middle" x="771.5" y="-1456.3" font-family="Times,serif" font-size="14.00">observar una coincidencia</text>
</g>
<!-- observar una coincidencia&#45;&gt;pej -->
<g id="edge14" class="edge"><title>observar una coincidencia&#45;&gt;pej</title>
<path fill="none" stroke="black" d="M850.651,-1466.47C885.042,-1465.1 923.548,-1457.19 950,-1433 996.786,-1390.21 1022.8,-1192.67 1031.07,-1118.37"/>
<polygon fill="black" stroke="black" points="1034.56,-1118.65 1032.16,-1108.33 1027.6,-1117.89 1034.56,-1118.65"/>
</g>
<!-- acordarse cosas -->
<g id="node16" class="node"><title>acordarse cosas</title>
<polygon fill="none" stroke="black" points="816,-1424 721,-1424 721,-1388 822,-1388 822,-1418 816,-1424"/>
<polyline fill="none" stroke="black" points="816,-1424 816,-1418 "/>
<polyline fill="none" stroke="black" points="822,-1418 816,-1418 "/>
<text text-anchor="middle" x="771.5" y="-1402.3" font-family="Times,serif" font-size="14.00">acordarse cosas</text>
</g>
<!-- acordarse cosas&#45;&gt;pej -->
<g id="edge15" class="edge"><title>acordarse cosas&#45;&gt;pej</title>
<path fill="none" stroke="black" d="M822.091,-1411.87C861.397,-1413.67 915.301,-1409.4 950,-1379 989.741,-1344.18 1019.12,-1184.01 1029.7,-1118.27"/>
<polygon fill="black" stroke="black" points="1033.19,-1118.64 1031.29,-1108.21 1026.27,-1117.54 1033.19,-1118.64"/>
</g>
<!-- sorpresa -->
<g id="node17" class="node"><title>sorpresa</title>
<polygon fill="none" stroke="black" points="796.5,-1370 740.5,-1370 740.5,-1334 802.5,-1334 802.5,-1364 796.5,-1370"/>
<polyline fill="none" stroke="black" points="796.5,-1370 796.5,-1364 "/>
<polyline fill="none" stroke="black" points="802.5,-1364 796.5,-1364 "/>
<text text-anchor="middle" x="771.5" y="-1348.3" font-family="Times,serif" font-size="14.00">sorpresa</text>
</g>
<!-- sorpresa&#45;&gt;pej -->
<g id="edge16" class="edge"><title>sorpresa&#45;&gt;pej</title>
<path fill="none" stroke="black" d="M802.584,-1356.08C841.185,-1359.57 908.144,-1359.49 950,-1325 1013.55,-1272.63 1029.04,-1168.5 1032.8,-1118.32"/>
<polygon fill="black" stroke="black" points="1036.3,-1118.4 1033.45,-1108.19 1029.32,-1117.95 1036.3,-1118.4"/>
</g>
<!-- seppo enojado -->
<g id="node18" class="node"><title>seppo enojado</title>
<polygon fill="none" stroke="black" points="813,-1316 724,-1316 724,-1280 819,-1280 819,-1310 813,-1316"/>
<polyline fill="none" stroke="black" points="813,-1316 813,-1310 "/>
<polyline fill="none" stroke="black" points="819,-1310 813,-1310 "/>
<text text-anchor="middle" x="771.5" y="-1294.3" font-family="Times,serif" font-size="14.00">seppo enojado</text>
</g>
<!-- seppo enojado&#45;&gt;pej -->
<g id="edge17" class="edge"><title>seppo enojado&#45;&gt;pej</title>
<path fill="none" stroke="black" d="M819.357,-1302.38C858.087,-1303.51 912.599,-1299.06 950,-1271 999.987,-1233.5 1021.24,-1158.98 1029.43,-1118.23"/>
<polygon fill="black" stroke="black" points="1032.91,-1118.64 1031.32,-1108.17 1026.03,-1117.35 1032.91,-1118.64"/>
</g>
<!-- estornudar -->
<g id="node19" class="node"><title>estornudar</title>
<polygon fill="none" stroke="black" points="802.5,-1262 734.5,-1262 734.5,-1226 808.5,-1226 808.5,-1256 802.5,-1262"/>
<polyline fill="none" stroke="black" points="802.5,-1262 802.5,-1256 "/>
<polyline fill="none" stroke="black" points="808.5,-1256 802.5,-1256 "/>
<text text-anchor="middle" x="771.5" y="-1240.3" font-family="Times,serif" font-size="14.00">estornudar</text>
</g>
<!-- estornudar&#45;&gt;pej -->
<g id="edge18" class="edge"><title>estornudar&#45;&gt;pej</title>
<path fill="none" stroke="black" d="M808.806,-1246.73C846.935,-1247.83 907.189,-1244.36 950,-1217 986.822,-1193.47 1011.12,-1147.37 1023.71,-1117.66"/>
<polygon fill="black" stroke="black" points="1027,-1118.85 1027.53,-1108.27 1020.52,-1116.21 1027,-1118.85"/>
</g>
<!-- toser -->
<g id="node20" class="node"><title>toser</title>
<polygon fill="none" stroke="black" points="792.5,-1208 744.5,-1208 744.5,-1172 798.5,-1172 798.5,-1202 792.5,-1208"/>
<polyline fill="none" stroke="black" points="792.5,-1208 792.5,-1202 "/>
<polyline fill="none" stroke="black" points="798.5,-1202 792.5,-1202 "/>
<text text-anchor="middle" x="771.5" y="-1186.3" font-family="Times,serif" font-size="14.00">toser</text>
</g>
<!-- toser&#45;&gt;pej -->
<g id="edge19" class="edge"><title>toser&#45;&gt;pej</title>
<path fill="none" stroke="black" d="M798.775,-1190.49C834.613,-1190.18 900.066,-1186.09 950,-1163 973.811,-1151.99 995.994,-1132.12 1011.58,-1115.89"/>
<polygon fill="black" stroke="black" points="1014.42,-1117.97 1018.68,-1108.27 1009.3,-1113.2 1014.42,-1117.97"/>
</g>
<!-- bocina -->
<g id="node21" class="node"><title>bocina</title>
<polygon fill="none" stroke="black" points="792.5,-1154 744.5,-1154 744.5,-1118 798.5,-1118 798.5,-1148 792.5,-1154"/>
<polyline fill="none" stroke="black" points="792.5,-1154 792.5,-1148 "/>
<polyline fill="none" stroke="black" points="798.5,-1148 792.5,-1148 "/>
<text text-anchor="middle" x="771.5" y="-1132.3" font-family="Times,serif" font-size="14.00">bocina</text>
</g>
<!-- bocina&#45;&gt;pej -->
<g id="edge20" class="edge"><title>bocina&#45;&gt;pej</title>
<path fill="none" stroke="black" d="M798.53,-1131.42C839.514,-1124.21 920.117,-1110.03 975.503,-1100.29"/>
<polygon fill="black" stroke="black" points="976.294,-1103.7 985.537,-1098.53 975.081,-1096.81 976.294,-1103.7"/>
</g>
<!-- pelotudeces -->
<g id="node22" class="node"><title>pelotudeces</title>
<polygon fill="none" stroke="black" points="805.5,-1062 731.5,-1062 731.5,-1026 811.5,-1026 811.5,-1056 805.5,-1062"/>
<polyline fill="none" stroke="black" points="805.5,-1062 805.5,-1056 "/>
<polyline fill="none" stroke="black" points="811.5,-1056 805.5,-1056 "/>
<text text-anchor="middle" x="771.5" y="-1040.3" font-family="Times,serif" font-size="14.00">pelotudeces</text>
</g>
<!-- pelotudeces&#45;&gt;pej -->
<g id="edge21" class="edge"><title>pelotudeces&#45;&gt;pej</title>
<path fill="none" stroke="black" d="M811.649,-1050.89C855.104,-1058.53 925.686,-1070.95 975.658,-1079.74"/>
<polygon fill="black" stroke="black" points="975.222,-1083.21 985.677,-1081.5 976.435,-1076.32 975.222,-1083.21"/>
</g>
<!-- roles -->
<g id="node23" class="node"><title>roles</title>
<polygon fill="none" stroke="black" points="910.5,-1008 626.5,-1008 626.5,-972 916.5,-972 916.5,-1002 910.5,-1008"/>
<polyline fill="none" stroke="black" points="910.5,-1008 910.5,-1002 "/>
<polyline fill="none" stroke="black" points="916.5,-1002 910.5,-1002 "/>
<text text-anchor="middle" x="771.5" y="-986.3" font-family="Times,serif" font-size="14.00">pensar en los roles que toma la gente en la oficina</text>
</g>
<!-- roles&#45;&gt;pej -->
<g id="edge22" class="edge"><title>roles&#45;&gt;pej</title>
<path fill="none" stroke="black" d="M916.504,-1004.71C928.081,-1008.04 939.391,-1012.09 950,-1017 973.811,-1028.01 995.994,-1047.88 1011.58,-1064.11"/>
<polygon fill="black" stroke="black" points="1009.3,-1066.8 1018.68,-1071.73 1014.42,-1062.03 1009.3,-1066.8"/>
</g>
<!-- seppo a secas -->
<g id="node24" class="node"><title>seppo a secas</title>
<polygon fill="none" stroke="black" points="810.5,-954 726.5,-954 726.5,-918 816.5,-918 816.5,-948 810.5,-954"/>
<polyline fill="none" stroke="black" points="810.5,-954 810.5,-948 "/>
<polyline fill="none" stroke="black" points="816.5,-948 810.5,-948 "/>
<text text-anchor="middle" x="771.5" y="-932.3" font-family="Times,serif" font-size="14.00">seppo a secas</text>
</g>
<!-- seppo a secas&#45;&gt;pej -->
<g id="edge23" class="edge"><title>seppo a secas&#45;&gt;pej</title>
<path fill="none" stroke="black" d="M816.816,-933.115C854.988,-932.75 910.078,-937.485 950,-963 986.822,-986.534 1011.12,-1032.63 1023.71,-1062.34"/>
<polygon fill="black" stroke="black" points="1020.52,-1063.79 1027.53,-1071.73 1027,-1061.15 1020.52,-1063.79"/>
</g>
<!-- bostezar -->
<g id="node25" class="node"><title>bostezar</title>
<polygon fill="none" stroke="black" points="515.5,-1262 459.5,-1262 459.5,-1226 521.5,-1226 521.5,-1256 515.5,-1262"/>
<polyline fill="none" stroke="black" points="515.5,-1262 515.5,-1256 "/>
<polyline fill="none" stroke="black" points="521.5,-1256 515.5,-1256 "/>
<text text-anchor="middle" x="490.5" y="-1240.3" font-family="Times,serif" font-size="14.00">bostezar</text>
</g>
<!-- bostezar&#45;&gt;estornudar -->
<g id="edge48" class="edge"><title>bostezar&#45;&gt;estornudar</title>
<path fill="none" stroke="black" d="M521.623,-1244C570.305,-1244 666.612,-1244 724.103,-1244"/>
<polygon fill="black" stroke="black" points="724.366,-1247.5 734.366,-1244 724.366,-1240.5 724.366,-1247.5"/>
</g>
<!-- chistes malos -->
<g id="node26" class="node"><title>chistes malos</title>
<polygon fill="none" stroke="black" points="810.5,-900 726.5,-900 726.5,-864 816.5,-864 816.5,-894 810.5,-900"/>
<polyline fill="none" stroke="black" points="810.5,-900 810.5,-894 "/>
<polyline fill="none" stroke="black" points="816.5,-894 810.5,-894 "/>
<text text-anchor="middle" x="771.5" y="-878.3" font-family="Times,serif" font-size="14.00">chistes malos</text>
</g>
<!-- chistes malos&#45;&gt;pej -->
<g id="edge24" class="edge"><title>chistes malos&#45;&gt;pej</title>
<path fill="none" stroke="black" d="M816.673,-877.71C855.534,-876.3 911.726,-880.287 950,-909 999.987,-946.499 1021.24,-1021.02 1029.43,-1061.77"/>
<polygon fill="black" stroke="black" points="1026.03,-1062.65 1031.32,-1071.83 1032.91,-1061.36 1026.03,-1062.65"/>
</g>
<!-- pe -->
<g id="node27" class="node"><title>pe</title>
<polygon fill="none" stroke="black" points="834,-846 703,-846 703,-810 840,-810 840,-840 834,-846"/>
<polyline fill="none" stroke="black" points="834,-846 834,-840 "/>
<polyline fill="none" stroke="black" points="840,-840 834,-840 "/>
<text text-anchor="middle" x="771.5" y="-824.3" font-family="Times,serif" font-size="14.00">pronunciación extraña</text>
</g>
<!-- pe&#45;&gt;pej -->
<g id="edge25" class="edge"><title>pe&#45;&gt;pej</title>
<path fill="none" stroke="black" d="M840.315,-822.501C876.562,-823.148 919.811,-830.123 950,-855 1013.55,-907.366 1029.04,-1011.5 1032.8,-1061.68"/>
<polygon fill="black" stroke="black" points="1029.32,-1062.05 1033.45,-1071.81 1036.3,-1061.6 1029.32,-1062.05"/>
</g>
<!-- pulgares bailarines -->
<g id="node28" class="node"><title>pulgares bailarines</title>
<polygon fill="none" stroke="black" points="825,-792 712,-792 712,-756 831,-756 831,-786 825,-792"/>
<polyline fill="none" stroke="black" points="825,-792 825,-786 "/>
<polyline fill="none" stroke="black" points="831,-786 825,-786 "/>
<text text-anchor="middle" x="771.5" y="-770.3" font-family="Times,serif" font-size="14.00">pulgares bailarines</text>
</g>
<!-- pulgares bailarines&#45;&gt;pej -->
<g id="edge26" class="edge"><title>pulgares bailarines&#45;&gt;pej</title>
<path fill="none" stroke="black" d="M831.083,-767.837C869.303,-767.106 917.88,-772.86 950,-801 989.741,-835.817 1019.12,-995.99 1029.7,-1061.73"/>
<polygon fill="black" stroke="black" points="1026.27,-1062.46 1031.29,-1071.79 1033.19,-1061.36 1026.27,-1062.46"/>
</g>
<!-- estar a un paso -->
<g id="node29" class="node"><title>estar a un paso</title>
<polygon fill="none" stroke="black" points="814.5,-738 722.5,-738 722.5,-702 820.5,-702 820.5,-732 814.5,-738"/>
<polyline fill="none" stroke="black" points="814.5,-738 814.5,-732 "/>
<polyline fill="none" stroke="black" points="820.5,-732 814.5,-732 "/>
<text text-anchor="middle" x="771.5" y="-716.3" font-family="Times,serif" font-size="14.00">estar a un paso</text>
</g>
<!-- estar a un paso&#45;&gt;pej -->
<g id="edge27" class="edge"><title>estar a un paso&#45;&gt;pej</title>
<path fill="none" stroke="black" d="M820.848,-713.824C860.488,-711.6 915.497,-715.446 950,-747 996.786,-789.788 1022.8,-987.326 1031.07,-1061.63"/>
<polygon fill="black" stroke="black" points="1027.6,-1062.11 1032.16,-1071.67 1034.56,-1061.35 1027.6,-1062.11"/>
</g>
<!-- la oficina -->
<g id="node30" class="node"><title>la oficina</title>
<polygon fill="none" stroke="black" points="799.5,-684 737.5,-684 737.5,-648 805.5,-648 805.5,-678 799.5,-684"/>
<polyline fill="none" stroke="black" points="799.5,-684 799.5,-678 "/>
<polyline fill="none" stroke="black" points="805.5,-678 799.5,-678 "/>
<text text-anchor="middle" x="771.5" y="-662.3" font-family="Times,serif" font-size="14.00">la oficina</text>
</g>
<!-- la oficina&#45;&gt;pej -->
<g id="edge28" class="edge"><title>la oficina&#45;&gt;pej</title>
<path fill="none" stroke="black" d="M805.741,-660.815C845.451,-656.654 911.355,-656.517 950,-693 1003.93,-743.912 1025.97,-979.618 1032.1,-1061.71"/>
<polygon fill="black" stroke="black" points="1028.61,-1062.09 1032.83,-1071.81 1035.6,-1061.59 1028.61,-1062.09"/>
</g>
<!-- dispersion -->
<g id="node31" class="node"><title>dispersion</title>
<polygon fill="none" stroke="black" points="801.5,-630 735.5,-630 735.5,-594 807.5,-594 807.5,-624 801.5,-630"/>
<polyline fill="none" stroke="black" points="801.5,-630 801.5,-624 "/>
<polyline fill="none" stroke="black" points="807.5,-624 801.5,-624 "/>
<text text-anchor="middle" x="771.5" y="-608.3" font-family="Times,serif" font-size="14.00">dispersion</text>
</g>
<!-- dispersion&#45;&gt;pej -->
<g id="edge29" class="edge"><title>dispersion&#45;&gt;pej</title>
<path fill="none" stroke="black" d="M807.66,-606.471C847.681,-602.341 912.362,-602.591 950,-639 1011.07,-698.072 1028.69,-971.93 1032.87,-1061.54"/>
<polygon fill="black" stroke="black" points="1029.38,-1061.92 1033.32,-1071.76 1036.37,-1061.61 1029.38,-1061.92"/>
</g>
<!-- ambulancia -->
<g id="node32" class="node"><title>ambulancia</title>
<polygon fill="none" stroke="black" points="524.5,-1154 450.5,-1154 450.5,-1118 530.5,-1118 530.5,-1148 524.5,-1154"/>
<polyline fill="none" stroke="black" points="524.5,-1154 524.5,-1148 "/>
<polyline fill="none" stroke="black" points="530.5,-1148 524.5,-1148 "/>
<text text-anchor="middle" x="490.5" y="-1132.3" font-family="Times,serif" font-size="14.00">ambulancia</text>
</g>
<!-- ambulancia&#45;&gt;bocina -->
<g id="edge40" class="edge"><title>ambulancia&#45;&gt;bocina</title>
<path fill="none" stroke="black" d="M530.588,-1136C584.605,-1136 681.352,-1136 733.977,-1136"/>
<polygon fill="black" stroke="black" points="734.197,-1139.5 744.197,-1136 734.197,-1132.5 734.197,-1139.5"/>
</g>
<!-- esperar chistes malos -->
<g id="node33" class="node"><title>esperar chistes malos</title>
<polygon fill="none" stroke="black" points="551,-927 424,-927 424,-891 557,-891 557,-921 551,-927"/>
<polyline fill="none" stroke="black" points="551,-927 551,-921 "/>
<polyline fill="none" stroke="black" points="557,-921 551,-921 "/>
<text text-anchor="middle" x="490.5" y="-905.3" font-family="Times,serif" font-size="14.00">esperar chistes malos</text>
</g>
<!-- esperar chistes malos&#45;&gt;chistes malos -->
<g id="edge41" class="edge"><title>esperar chistes malos&#45;&gt;chistes malos</title>
<path fill="none" stroke="black" d="M557.266,-902.636C605.793,-897.939 671.026,-891.627 716.511,-887.225"/>
<polygon fill="black" stroke="black" points="716.86,-890.707 726.477,-886.26 716.186,-883.74 716.86,-890.707"/>
</g>
<!-- chiste de Ramiro -->
<g id="node34" class="node"><title>chiste de Ramiro</title>
<polygon fill="none" stroke="black" points="539.5,-873 435.5,-873 435.5,-837 545.5,-837 545.5,-867 539.5,-873"/>
<polyline fill="none" stroke="black" points="539.5,-873 539.5,-867 "/>
<polyline fill="none" stroke="black" points="545.5,-867 539.5,-867 "/>
<text text-anchor="middle" x="490.5" y="-851.3" font-family="Times,serif" font-size="14.00">chiste de Ramiro</text>
</g>
<!-- chiste de Ramiro&#45;&gt;chistes malos -->
<g id="edge42" class="edge"><title>chiste de Ramiro&#45;&gt;chistes malos</title>
<path fill="none" stroke="black" d="M545.625,-860.238C594.742,-864.991 666.803,-871.965 716.028,-876.728"/>
<polygon fill="black" stroke="black" points="715.878,-880.23 726.169,-877.71 716.552,-873.263 715.878,-880.23"/>
</g>
<!-- unchunk -->
<g id="node35" class="node"><title>unchunk</title>
<polygon fill="none" stroke="black" points="516,-1640 459,-1640 459,-1604 522,-1604 522,-1634 516,-1640"/>
<polyline fill="none" stroke="black" points="516,-1640 516,-1634 "/>
<polyline fill="none" stroke="black" points="522,-1634 516,-1634 "/>
<text text-anchor="middle" x="490.5" y="-1618.3" font-family="Times,serif" font-size="14.00">unchunk</text>
</g>
<!-- unchunk&#45;&gt;cachunk -->
<g id="edge43" class="edge"><title>unchunk&#45;&gt;cachunk</title>
<path fill="none" stroke="black" d="M522.156,-1622C572.69,-1622 673.489,-1622 729.891,-1622"/>
<polygon fill="black" stroke="black" points="730.217,-1625.5 740.217,-1622 730.217,-1618.5 730.217,-1625.5"/>
</g>
<!-- andar descalzo -->
<g id="node36" class="node"><title>andar descalzo</title>
<polygon fill="none" stroke="black" points="533,-36 442,-36 442,-0 539,-0 539,-30 533,-36"/>
<polyline fill="none" stroke="black" points="533,-36 533,-30 "/>
<polyline fill="none" stroke="black" points="539,-30 533,-30 "/>
<text text-anchor="middle" x="490.5" y="-14.3" font-family="Times,serif" font-size="14.00">andar descalzo</text>
</g>
<!-- seppo -->
<g id="node57" class="node"><title>seppo</title>
<polygon fill="none" stroke="black" points="792.5,-36 744.5,-36 744.5,-0 798.5,-0 798.5,-30 792.5,-36"/>
<polyline fill="none" stroke="black" points="792.5,-36 792.5,-30 "/>
<polyline fill="none" stroke="black" points="798.5,-30 792.5,-30 "/>
<text text-anchor="middle" x="771.5" y="-14.3" font-family="Times,serif" font-size="14.00">seppo</text>
</g>
<!-- andar descalzo&#45;&gt;seppo -->
<g id="edge44" class="edge"><title>andar descalzo&#45;&gt;seppo</title>
<path fill="none" stroke="black" d="M539.145,-18C594.504,-18 684.607,-18 734.459,-18"/>
<polygon fill="black" stroke="black" points="734.459,-21.5001 744.459,-18 734.459,-14.5001 734.459,-21.5001"/>
</g>
<!-- pin naranja -->
<g id="node37" class="node"><title>pin naranja</title>
<polygon fill="none" stroke="black" points="98,-36 27,-36 27,-0 104,-0 104,-30 98,-36"/>
<polyline fill="none" stroke="black" points="98,-36 98,-30 "/>
<polyline fill="none" stroke="black" points="104,-30 98,-30 "/>
<text text-anchor="middle" x="65.5" y="-14.3" font-family="Times,serif" font-size="14.00">pin naranja</text>
</g>
<!-- camiseta -->
<g id="node41" class="node"><title>camiseta</title>
<polygon fill="none" stroke="black" points="382,-36 167,-36 167,-0 388,-0 388,-30 382,-36"/>
<polyline fill="none" stroke="black" points="382,-36 382,-30 "/>
<polyline fill="none" stroke="black" points="388,-30 382,-30 "/>
<text text-anchor="middle" x="277.5" y="-14.3" font-family="Times,serif" font-size="14.00">camiseta de lucas (andando descalzo)</text>
</g>
<!-- pin naranja&#45;&gt;camiseta -->
<g id="edge45" class="edge"><title>pin naranja&#45;&gt;camiseta</title>
<path fill="none" stroke="black" d="M104.044,-18C119.214,-18 137.641,-18 156.734,-18"/>
<polygon fill="black" stroke="black" points="156.765,-21.5001 166.765,-18 156.765,-14.5001 156.765,-21.5001"/>
</g>
<!-- dot -->
<g id="node38" class="node"><title>dot</title>
<polygon fill="none" stroke="black" points="792.5,-576 744.5,-576 744.5,-540 798.5,-540 798.5,-570 792.5,-576"/>
<polyline fill="none" stroke="black" points="792.5,-576 792.5,-570 "/>
<polyline fill="none" stroke="black" points="798.5,-570 792.5,-570 "/>
<text text-anchor="middle" x="771.5" y="-554.3" font-family="Times,serif" font-size="14.00">dot</text>
</g>
<!-- dot&#45;&gt;pej -->
<g id="edge34" class="edge"><title>dot&#45;&gt;pej</title>
<path fill="none" stroke="black" d="M798.614,-553.436C837.333,-548.307 909.719,-545.274 950,-585 1018.32,-652.379 1031.15,-965.372 1033.49,-1061.71"/>
<polygon fill="black" stroke="black" points="1030,-1061.93 1033.72,-1071.85 1036.99,-1061.78 1030,-1061.93"/>
</g>
<!-- sl -->
<g id="node39" class="node"><title>sl</title>
<polygon fill="none" stroke="black" points="792.5,-522 744.5,-522 744.5,-486 798.5,-486 798.5,-516 792.5,-522"/>
<polyline fill="none" stroke="black" points="792.5,-522 792.5,-516 "/>
<polyline fill="none" stroke="black" points="798.5,-516 792.5,-516 "/>
<text text-anchor="middle" x="771.5" y="-500.3" font-family="Times,serif" font-size="14.00">sl</text>
</g>
<!-- sl&#45;&gt;pej -->
<g id="edge35" class="edge"><title>sl&#45;&gt;pej</title>
<path fill="none" stroke="black" d="M798.693,-499.356C837.515,-494.124 910.032,-490.96 950,-531 1025.51,-606.643 1033.34,-958.237 1033.99,-1061.45"/>
<polygon fill="black" stroke="black" points="1030.49,-1061.73 1034.04,-1071.71 1037.49,-1061.7 1030.49,-1061.73"/>
</g>
<!-- rc -->
<g id="node40" class="node"><title>rc</title>
<polygon fill="none" stroke="black" points="544.5,-576 430.5,-576 430.5,-540 550.5,-540 550.5,-570 544.5,-576"/>
<polyline fill="none" stroke="black" points="544.5,-576 544.5,-570 "/>
<polyline fill="none" stroke="black" points="550.5,-570 544.5,-570 "/>
<text text-anchor="middle" x="490.5" y="-554.3" font-family="Times,serif" font-size="14.00">referencias cíclicas</text>
</g>
<!-- rc&#45;&gt;dot -->
<g id="edge50" class="edge"><title>rc&#45;&gt;dot</title>
<path fill="none" stroke="black" d="M550.669,-558C606.169,-558 687.404,-558 734.006,-558"/>
<polygon fill="black" stroke="black" points="734.237,-561.5 744.237,-558 734.237,-554.5 734.237,-561.5"/>
</g>
<!-- camiseta&#45;&gt;andar descalzo -->
<g id="edge46" class="edge"><title>camiseta&#45;&gt;andar descalzo</title>
<path fill="none" stroke="black" d="M388.017,-18C403.13,-18 418.133,-18 431.783,-18"/>
<polygon fill="black" stroke="black" points="431.937,-21.5001 441.937,-18 431.937,-14.5001 431.937,-21.5001"/>
</g>
<!-- lcdtm -->
<g id="node42" class="node"><title>lcdtm</title>
<polygon fill="none" stroke="black" points="834,-468 703,-468 703,-432 840,-432 840,-462 834,-468"/>
<polyline fill="none" stroke="black" points="834,-468 834,-462 "/>
<polyline fill="none" stroke="black" points="840,-462 834,-462 "/>
<text text-anchor="middle" x="771.5" y="-446.3" font-family="Times,serif" font-size="14.00">la concha de tu madre</text>
</g>
<!-- lcdtm&#45;&gt;pej -->
<g id="edge31" class="edge"><title>lcdtm&#45;&gt;pej</title>
<path fill="none" stroke="black" d="M840.248,-442.185C877.622,-441.83 921.997,-448.58 950,-477 1032.82,-561.054 1035.35,-952.335 1034.41,-1061.6"/>
<polygon fill="black" stroke="black" points="1030.91,-1061.8 1034.3,-1071.83 1037.91,-1061.87 1030.91,-1061.8"/>
</g>
<!-- bomberos -->
<g id="node43" class="node"><title>bomberos</title>
<polygon fill="none" stroke="black" points="307,-1162 242,-1162 242,-1126 313,-1126 313,-1156 307,-1162"/>
<polyline fill="none" stroke="black" points="307,-1162 307,-1156 "/>
<polyline fill="none" stroke="black" points="313,-1156 307,-1156 "/>
<text text-anchor="middle" x="277.5" y="-1140.3" font-family="Times,serif" font-size="14.00">bomberos</text>
</g>
<!-- bomberos&#45;&gt;ambulancia -->
<g id="edge39" class="edge"><title>bomberos&#45;&gt;ambulancia</title>
<path fill="none" stroke="black" d="M313.342,-1142.68C347.941,-1141.37 401.303,-1139.34 440.232,-1137.87"/>
<polygon fill="black" stroke="black" points="440.439,-1141.36 450.299,-1137.49 440.174,-1134.37 440.439,-1141.36"/>
</g>
<!-- int -->
<g id="node44" class="node"><title>int</title>
<polygon fill="none" stroke="black" points="530,-414 445,-414 445,-378 536,-378 536,-408 530,-414"/>
<polyline fill="none" stroke="black" points="530,-414 530,-408 "/>
<polyline fill="none" stroke="black" points="536,-408 530,-408 "/>
<text text-anchor="middle" x="490.5" y="-392.3" font-family="Times,serif" font-size="14.00">interconexión</text>
</g>
<!-- asoc -->
<g id="node45" class="node"><title>asoc</title>
<polygon fill="none" stroke="black" points="802.5,-414 734.5,-414 734.5,-378 808.5,-378 808.5,-408 802.5,-414"/>
<polyline fill="none" stroke="black" points="802.5,-414 802.5,-408 "/>
<polyline fill="none" stroke="black" points="808.5,-408 802.5,-408 "/>
<text text-anchor="middle" x="771.5" y="-392.3" font-family="Times,serif" font-size="14.00">asociación</text>
</g>
<!-- int&#45;&gt;asoc -->
<g id="edge47" class="edge"><title>int&#45;&gt;asoc</title>
<path fill="none" stroke="black" d="M536.017,-396C587.507,-396 671.877,-396 724.138,-396"/>
<polygon fill="black" stroke="black" points="724.143,-399.5 734.142,-396 724.142,-392.5 724.143,-399.5"/>
</g>
<!-- asoc&#45;&gt;pej -->
<g id="edge32" class="edge"><title>asoc&#45;&gt;pej</title>
<path fill="none" stroke="black" d="M808.77,-390.004C849.202,-385.59 913.667,-385.722 950,-423 995.373,-469.554 1025.39,-940.268 1032.42,-1061.6"/>
<polygon fill="black" stroke="black" points="1028.94,-1062.13 1033.01,-1071.91 1035.93,-1061.73 1028.94,-1062.13"/>
</g>
<!-- mv -->
<g id="node46" class="node"><title>mv</title>
<polygon fill="none" stroke="black" points="820,-360 717,-360 717,-324 826,-324 826,-354 820,-360"/>
<polyline fill="none" stroke="black" points="820,-360 820,-354 "/>
<polyline fill="none" stroke="black" points="826,-354 820,-354 "/>
<text text-anchor="middle" x="771.5" y="-338.3" font-family="Times,serif" font-size="14.00">Mariano Vicente</text>
</g>
<!-- mv&#45;&gt;pej -->
<g id="edge33" class="edge"><title>mv&#45;&gt;pej</title>
<path fill="none" stroke="black" d="M826.379,-334.465C866.193,-332.173 918.713,-336.599 950,-369 999.068,-419.815 1026.62,-934.695 1032.71,-1061.77"/>
<polygon fill="black" stroke="black" points="1029.22,-1062.04 1033.18,-1071.87 1036.21,-1061.71 1029.22,-1062.04"/>
</g>
<!-- buffalo -->
<g id="node47" class="node"><title>buffalo</title>
<polygon fill="none" stroke="black" points="944,-306 593,-306 593,-270 950,-270 950,-300 944,-306"/>
<polyline fill="none" stroke="black" points="944,-306 944,-300 "/>
<polyline fill="none" stroke="black" points="950,-300 944,-300 "/>
<text text-anchor="middle" x="771.5" y="-284.3" font-family="Times,serif" font-size="14.00">Buffalo buffalo buffalo buffalo buffalo buffalo buffalo buffalo</text>
</g>
<!-- buffalo&#45;&gt;pej -->
<g id="edge36" class="edge"><title>buffalo&#45;&gt;pej</title>
<path fill="none" stroke="black" d="M940.009,-306.036C943.532,-308.755 946.874,-311.736 950,-315 1002.76,-370.075 1027.73,-929.03 1032.95,-1061.81"/>
<polygon fill="black" stroke="black" points="1029.46,-1062.12 1033.34,-1071.98 1036.45,-1061.85 1029.46,-1062.12"/>
</g>
<!-- fais -->
<g id="node48" class="node"><title>fais</title>
<polygon fill="none" stroke="black" points="114.5,-252 10.5,-252 10.5,-216 120.5,-216 120.5,-246 114.5,-252"/>
<polyline fill="none" stroke="black" points="114.5,-252 114.5,-246 "/>
<polyline fill="none" stroke="black" points="120.5,-246 114.5,-246 "/>
<text text-anchor="middle" x="65.5" y="-230.3" font-family="Times,serif" font-size="14.00">Free as in speech</text>
</g>
<!-- faib -->
<g id="node49" class="node"><title>faib</title>
<polygon fill="none" stroke="black" points="320,-252 229,-252 229,-216 326,-216 326,-246 320,-252"/>
<polyline fill="none" stroke="black" points="320,-252 320,-246 "/>
<polyline fill="none" stroke="black" points="326,-246 320,-246 "/>
<text text-anchor="middle" x="277.5" y="-230.3" font-family="Times,serif" font-size="14.00">Free as in beer</text>
</g>
<!-- fais&#45;&gt;faib -->
<g id="edge51" class="edge"><title>fais&#45;&gt;faib</title>
<path fill="none" stroke="black" d="M120.58,-234C150.606,-234 187.961,-234 218.58,-234"/>
<polygon fill="black" stroke="black" points="218.686,-237.5 228.686,-234 218.686,-230.5 218.686,-237.5"/>
</g>
<!-- faibe -->
<g id="node50" class="node"><title>faibe</title>
<polygon fill="none" stroke="black" points="533,-252 442,-252 442,-216 539,-216 539,-246 533,-252"/>
<polyline fill="none" stroke="black" points="533,-252 533,-246 "/>
<polyline fill="none" stroke="black" points="539,-246 533,-246 "/>
<text text-anchor="middle" x="490.5" y="-230.3" font-family="Times,serif" font-size="14.00">Free as in bear</text>
</g>
<!-- faib&#45;&gt;faibe -->
<g id="edge52" class="edge"><title>faib&#45;&gt;faibe</title>
<path fill="none" stroke="black" d="M326.116,-234C357.399,-234 398.517,-234 431.677,-234"/>
<polygon fill="black" stroke="black" points="431.693,-237.5 441.693,-234 431.693,-230.5 431.693,-237.5"/>
</g>
<!-- wb -->
<g id="node51" class="node"><title>wb</title>
<polygon fill="none" stroke="black" points="804,-252 733,-252 733,-216 810,-216 810,-246 804,-252"/>
<polyline fill="none" stroke="black" points="804,-252 804,-246 "/>
<polyline fill="none" stroke="black" points="810,-246 804,-246 "/>
<text text-anchor="middle" x="771.5" y="-230.3" font-family="Times,serif" font-size="14.00">White bear</text>
</g>
<!-- faibe&#45;&gt;wb -->
<g id="edge53" class="edge"><title>faibe&#45;&gt;wb</title>
<path fill="none" stroke="black" d="M539.145,-234C590.398,-234 671.43,-234 722.731,-234"/>
<polygon fill="black" stroke="black" points="722.891,-237.5 732.891,-234 722.891,-230.5 722.891,-237.5"/>
</g>
<!-- wb&#45;&gt;pej -->
<g id="edge54" class="edge"><title>wb&#45;&gt;pej</title>
<path fill="none" stroke="black" d="M810.034,-227.724C850.677,-223.288 914.445,-223.622 950,-261 1006.42,-320.317 1028.74,-922.934 1033.15,-1061.64"/>
<polygon fill="black" stroke="black" points="1029.66,-1061.98 1033.47,-1071.87 1036.66,-1061.76 1029.66,-1061.98"/>
</g>
<!-- comecoco -->
<g id="node52" class="node"><title>comecoco</title>
<polygon fill="none" stroke="black" points="823.5,-198 713.5,-198 713.5,-162 829.5,-162 829.5,-192 823.5,-198"/>
<polyline fill="none" stroke="black" points="823.5,-198 823.5,-192 "/>
<polyline fill="none" stroke="black" points="829.5,-192 823.5,-192 "/>
<text text-anchor="middle" x="771.5" y="-176.3" font-family="Times,serif" font-size="14.00">comerse la cabeza</text>
</g>
<!-- comecoco&#45;&gt;pej -->
<g id="edge37" class="edge"><title>comecoco&#45;&gt;pej</title>
<path fill="none" stroke="black" d="M829.918,-172.095C869.386,-170.151 919.913,-175.176 950,-207 1010.12,-270.595 1029.71,-917.528 1033.34,-1061.64"/>
<polygon fill="black" stroke="black" points="1029.84,-1061.95 1033.59,-1071.87 1036.84,-1061.78 1029.84,-1061.95"/>
</g>
<!-- palabras -->
<g id="node53" class="node"><title>palabras</title>
<polygon fill="none" stroke="black" points="821.5,-144 715.5,-144 715.5,-108 827.5,-108 827.5,-138 821.5,-144"/>
<polyline fill="none" stroke="black" points="821.5,-144 821.5,-138 "/>
<polyline fill="none" stroke="black" points="827.5,-138 821.5,-138 "/>
<text text-anchor="middle" x="771.5" y="-122.3" font-family="Times,serif" font-size="14.00">juego de palabras</text>
</g>
<!-- palabras&#45;&gt;pej -->
<g id="edge38" class="edge"><title>palabras&#45;&gt;pej</title>
<path fill="none" stroke="black" d="M827.873,-118.157C867.66,-115.907 919.466,-120.527 950,-153 1013.85,-220.908 1030.62,-912.816 1033.5,-1061.82"/>
<polygon fill="black" stroke="black" points="1030.01,-1062.04 1033.7,-1071.97 1037.01,-1061.91 1030.01,-1062.04"/>
</g>
<!-- cantito -->
<g id="node54" class="node"><title>cantito</title>
<polygon fill="none" stroke="black" points="822.5,-90 714.5,-90 714.5,-54 828.5,-54 828.5,-84 822.5,-90"/>
<polyline fill="none" stroke="black" points="822.5,-90 822.5,-84 "/>
<polyline fill="none" stroke="black" points="828.5,-84 822.5,-84 "/>
<text text-anchor="middle" x="771.5" y="-68.3" font-family="Times,serif" font-size="14.00">Cantito / bailecito</text>
</g>
<!-- cantito&#45;&gt;pej -->
<g id="edge55" class="edge"><title>cantito&#45;&gt;pej</title>
<path fill="none" stroke="black" d="M828.756,-64.0668C868.453,-61.9081 919.758,-66.6804 950,-99 1017.54,-171.181 1031.46,-907.235 1033.65,-1061.67"/>
<polygon fill="black" stroke="black" points="1030.15,-1061.82 1033.79,-1071.77 1037.15,-1061.72 1030.15,-1061.82"/>
</g>
<!-- same_english -->
<g id="node55" class="node"><title>same_english</title>
<polygon fill="none" stroke="black" points="125,-1108 0,-1108 0,-1072 131,-1072 131,-1102 125,-1108"/>
<polyline fill="none" stroke="black" points="125,-1108 125,-1102 "/>
<polyline fill="none" stroke="black" points="131,-1102 125,-1102 "/>
<text text-anchor="middle" x="65.5" y="-1086.3" font-family="Times,serif" font-size="14.00">same (English word)</text>
</g>
<!-- same_acronym -->
<g id="node56" class="node"><title>same_acronym</title>
<polygon fill="none" stroke="black" points="306.5,-1108 242.5,-1108 242.5,-1072 312.5,-1072 312.5,-1102 306.5,-1108"/>
<polyline fill="none" stroke="black" points="306.5,-1108 306.5,-1102 "/>
<polyline fill="none" stroke="black" points="312.5,-1102 306.5,-1102 "/>
<text text-anchor="middle" x="277.5" y="-1086.3" font-family="Times,serif" font-size="14.00">S.A.M.E.</text>
</g>
<!-- same_english&#45;&gt;same_acronym -->
<g id="edge56" class="edge"><title>same_english&#45;&gt;same_acronym</title>
<path fill="none" stroke="black" d="M131.22,-1090C163.957,-1090 202.85,-1090 232.153,-1090"/>
<polygon fill="black" stroke="black" points="232.485,-1093.5 242.485,-1090 232.485,-1086.5 232.485,-1093.5"/>
</g>
<!-- same_acronym&#45;&gt;pej -->
<g id="edge57" class="edge"><title>same_acronym&#45;&gt;pej</title>
<path fill="none" stroke="black" d="M312.925,-1090C431.747,-1090 825.569,-1090 975.422,-1090"/>
<polygon fill="black" stroke="black" points="975.782,-1093.5 985.782,-1090 975.782,-1086.5 975.782,-1093.5"/>
</g>
<!-- same_acronym&#45;&gt;ambulancia -->
<g id="edge58" class="edge"><title>same_acronym&#45;&gt;ambulancia</title>
<path fill="none" stroke="black" d="M312.87,-1097.49C347.569,-1105.06 401.481,-1116.81 440.62,-1125.34"/>
<polygon fill="black" stroke="black" points="439.967,-1128.78 450.483,-1127.49 441.458,-1121.94 439.967,-1128.78"/>
</g>
<!-- seppo&#45;&gt;pej -->
<g id="edge30" class="edge"><title>seppo&#45;&gt;pej</title>
<path fill="none" stroke="black" d="M798.726,-13.059C837.929,-7.35659 911.329,-3.49212 950,-45 1021.18,-121.404 1032.25,-900.616 1033.77,-1061.17"/>
<polygon fill="black" stroke="black" points="1030.28,-1061.67 1033.87,-1071.64 1037.28,-1061.61 1030.28,-1061.67"/>
</g>
<!-- 42 -->
<g id="node58" class="node"><title>42</title>
<polygon fill="none" stroke="black" points="511.5,-1424 463.5,-1424 463.5,-1388 517.5,-1388 517.5,-1418 511.5,-1424"/>
<polyline fill="none" stroke="black" points="511.5,-1424 511.5,-1418 "/>
<polyline fill="none" stroke="black" points="517.5,-1418 511.5,-1418 "/>
<text text-anchor="middle" x="490.5" y="-1402.3" font-family="Times,serif" font-size="14.00">42</text>
</g>
<!-- 42&#45;&gt;acordarse cosas -->
<g id="edge49" class="edge"><title>42&#45;&gt;acordarse cosas</title>
<path fill="none" stroke="black" d="M517.748,-1406C561.603,-1406 650.851,-1406 710.68,-1406"/>
<polygon fill="black" stroke="black" points="710.754,-1409.5 720.754,-1406 710.754,-1402.5 710.754,-1409.5"/>
</g>
</g>
</svg>
