<?xml version="1.0" encoding="UTF-8" standalone="no"?>
<!DOCTYPE svg PUBLIC "-//W3C//DTD SVG 1.1//EN"
 "http://www.w3.org/Graphics/SVG/1.1/DTD/svg11.dtd">
<!-- Generated by graphviz version 2.38.0 (20140413.2041)
 -->
<!-- Title: %3 Pages: 1 -->
<svg width="1071pt" height="2150pt"
 viewBox="0.00 0.00 1071.00 2150.00" xmlns="http://www.w3.org/2000/svg" xmlns:xlink="http://www.w3.org/1999/xlink">
<g id="graph0" class="graph" transform="scale(1 1) rotate(0) translate(4 2146)">
<title>%3</title>
<polygon fill="white" stroke="none" points="-4,4 -4,-2146 1067,-2146 1067,4 -4,4"/>
<!-- pej -->
<g id="node1" class="node"><title>pej</title>
<polygon fill="none" stroke="black" points="1057,-1089 965,-1089 965,-1053 1063,-1053 1063,-1083 1057,-1089"/>
<polyline fill="none" stroke="black" points="1057,-1089 1057,-1083 "/>
<polyline fill="none" stroke="black" points="1063,-1083 1057,-1083 "/>
<text text-anchor="middle" x="1014" y="-1067.3" font-family="Times,serif" font-size="14.00">perder el juego</text>
</g>
<!-- no tener la culpa -->
<g id="node2" class="node"><title>no tener la culpa</title>
<polygon fill="none" stroke="black" points="798,-2142 697,-2142 697,-2106 804,-2106 804,-2136 798,-2142"/>
<polyline fill="none" stroke="black" points="798,-2142 798,-2136 "/>
<polyline fill="none" stroke="black" points="804,-2136 798,-2136 "/>
<text text-anchor="middle" x="750.5" y="-2120.3" font-family="Times,serif" font-size="14.00">no tener la culpa</text>
</g>
<!-- no tener la culpa&#45;&gt;pej -->
<g id="edge2" class="edge"><title>no tener la culpa&#45;&gt;pej</title>
<path fill="none" stroke="black" d="M804.045,-2131.73C844.221,-2134.41 897.848,-2130.39 929,-2097 998.951,-2022.03 1010.99,-1256.95 1012.73,-1099.31"/>
<polygon fill="black" stroke="black" points="1016.24,-1099.07 1012.84,-1089.03 1009.24,-1098.99 1016.24,-1099.07"/>
</g>
<!-- perder -->
<g id="node3" class="node"><title>perder</title>
<polygon fill="none" stroke="black" points="771.5,-2088 723.5,-2088 723.5,-2052 777.5,-2052 777.5,-2082 771.5,-2088"/>
<polyline fill="none" stroke="black" points="771.5,-2088 771.5,-2082 "/>
<polyline fill="none" stroke="black" points="777.5,-2082 771.5,-2082 "/>
<text text-anchor="middle" x="750.5" y="-2066.3" font-family="Times,serif" font-size="14.00">perder</text>
</g>
<!-- perder&#45;&gt;pej -->
<g id="edge1" class="edge"><title>perder&#45;&gt;pej</title>
<path fill="none" stroke="black" d="M777.695,-2074.91C816.858,-2080.58 890.205,-2084.39 929,-2043 995.177,-1972.39 1010.14,-1253.25 1012.59,-1099.73"/>
<polygon fill="black" stroke="black" points="1016.1,-1099.34 1012.75,-1089.29 1009.1,-1099.23 1016.1,-1099.34"/>
</g>
<!-- trigger -->
<g id="node4" class="node"><title>trigger</title>
<polygon fill="none" stroke="black" points="771.5,-2034 723.5,-2034 723.5,-1998 777.5,-1998 777.5,-2028 771.5,-2034"/>
<polyline fill="none" stroke="black" points="771.5,-2034 771.5,-2028 "/>
<polyline fill="none" stroke="black" points="777.5,-2028 771.5,-2028 "/>
<text text-anchor="middle" x="750.5" y="-2012.3" font-family="Times,serif" font-size="14.00">trigger</text>
</g>
<!-- trigger&#45;&gt;pej -->
<g id="edge3" class="edge"><title>trigger&#45;&gt;pej</title>
<path fill="none" stroke="black" d="M777.669,-2020.89C816.797,-2026.52 890.101,-2030.29 929,-1989 991.562,-1922.59 1009.32,-1246.05 1012.45,-1099.08"/>
<polygon fill="black" stroke="black" points="1015.95,-1099.13 1012.66,-1089.06 1008.95,-1098.98 1015.95,-1099.13"/>
</g>
<!-- get on my horse -->
<g id="node5" class="node"><title>get on my horse</title>
<polygon fill="none" stroke="black" points="797,-1980 698,-1980 698,-1944 803,-1944 803,-1974 797,-1980"/>
<polyline fill="none" stroke="black" points="797,-1980 797,-1974 "/>
<polyline fill="none" stroke="black" points="803,-1974 797,-1974 "/>
<text text-anchor="middle" x="750.5" y="-1958.3" font-family="Times,serif" font-size="14.00">get on my horse</text>
</g>
<!-- get on my horse&#45;&gt;pej -->
<g id="edge4" class="edge"><title>get on my horse&#45;&gt;pej</title>
<path fill="none" stroke="black" d="M803.086,-1969.55C843.272,-1972.26 897.38,-1968.38 929,-1935 987.842,-1872.89 1008.39,-1241.13 1012.28,-1099.2"/>
<polygon fill="black" stroke="black" points="1015.78,-1099.22 1012.55,-1089.13 1008.78,-1099.03 1015.78,-1099.22"/>
</g>
<!-- wget -->
<g id="node6" class="node"><title>wget</title>
<polygon fill="none" stroke="black" points="771.5,-1926 723.5,-1926 723.5,-1890 777.5,-1890 777.5,-1920 771.5,-1926"/>
<polyline fill="none" stroke="black" points="771.5,-1926 771.5,-1920 "/>
<polyline fill="none" stroke="black" points="777.5,-1920 771.5,-1920 "/>
<text text-anchor="middle" x="750.5" y="-1904.3" font-family="Times,serif" font-size="14.00">wget</text>
</g>
<!-- wget&#45;&gt;pej -->
<g id="edge5" class="edge"><title>wget&#45;&gt;pej</title>
<path fill="none" stroke="black" d="M777.607,-1912.83C816.653,-1918.38 889.852,-1922.06 929,-1881 984.153,-1823.16 1007.41,-1235.51 1012.09,-1099.15"/>
<polygon fill="black" stroke="black" points="1015.59,-1099.2 1012.43,-1089.09 1008.59,-1098.96 1015.59,-1099.2"/>
</g>
<!-- tener demasiados -->
<g id="node7" class="node"><title>tener demasiados</title>
<polygon fill="none" stroke="black" points="800,-1872 695,-1872 695,-1836 806,-1836 806,-1866 800,-1872"/>
<polyline fill="none" stroke="black" points="800,-1872 800,-1866 "/>
<polyline fill="none" stroke="black" points="806,-1866 800,-1866 "/>
<text text-anchor="middle" x="750.5" y="-1850.3" font-family="Times,serif" font-size="14.00">tener demasiados</text>
</g>
<!-- tener demasiados&#45;&gt;pej -->
<g id="edge6" class="edge"><title>tener demasiados&#45;&gt;pej</title>
<path fill="none" stroke="black" d="M806.257,-1861.63C845.994,-1863.84 898.015,-1859.26 929,-1827 980.44,-1773.44 1006.33,-1230.39 1011.86,-1099.34"/>
<polygon fill="black" stroke="black" points="1015.36,-1099.43 1012.28,-1089.29 1008.37,-1099.13 1015.36,-1099.43"/>
</g>
<!-- mandar a alguien al frente -->
<g id="node8" class="node"><title>mandar a alguien al frente</title>
<polygon fill="none" stroke="black" points="824.5,-1818 670.5,-1818 670.5,-1782 830.5,-1782 830.5,-1812 824.5,-1818"/>
<polyline fill="none" stroke="black" points="824.5,-1818 824.5,-1812 "/>
<polyline fill="none" stroke="black" points="830.5,-1812 824.5,-1812 "/>
<text text-anchor="middle" x="750.5" y="-1796.3" font-family="Times,serif" font-size="14.00">mandar a alguien al frente</text>
</g>
<!-- mandar a alguien al frente&#45;&gt;pej -->
<g id="edge7" class="edge"><title>mandar a alguien al frente&#45;&gt;pej</title>
<path fill="none" stroke="black" d="M830.575,-1807.9C865.374,-1806.88 903.952,-1798.86 929,-1773 976.718,-1723.74 1005.14,-1225.4 1011.59,-1099.68"/>
<polygon fill="black" stroke="black" points="1015.1,-1099.5 1012.11,-1089.34 1008.11,-1099.15 1015.1,-1099.5"/>
</g>
<!-- las pausas -->
<g id="node9" class="node"><title>las pausas</title>
<polygon fill="none" stroke="black" points="780,-1764 715,-1764 715,-1728 786,-1728 786,-1758 780,-1764"/>
<polyline fill="none" stroke="black" points="780,-1764 780,-1758 "/>
<polyline fill="none" stroke="black" points="786,-1758 780,-1758 "/>
<text text-anchor="middle" x="750.5" y="-1742.3" font-family="Times,serif" font-size="14.00">las pausas</text>
</g>
<!-- las pausas&#45;&gt;pej -->
<g id="edge8" class="edge"><title>las pausas&#45;&gt;pej</title>
<path fill="none" stroke="black" d="M786.304,-1751.81C826.607,-1756.36 892.164,-1756.66 929,-1719 973.087,-1673.93 1003.95,-1218.47 1011.31,-1099.37"/>
<polygon fill="black" stroke="black" points="1014.81,-1099.42 1011.93,-1089.22 1007.83,-1098.99 1014.81,-1099.42"/>
</g>
<!-- silencio -->
<g id="node10" class="node"><title>silencio</title>
<polygon fill="none" stroke="black" points="774,-1710 721,-1710 721,-1674 780,-1674 780,-1704 774,-1710"/>
<polyline fill="none" stroke="black" points="774,-1710 774,-1704 "/>
<polyline fill="none" stroke="black" points="780,-1704 774,-1704 "/>
<text text-anchor="middle" x="750.5" y="-1688.3" font-family="Times,serif" font-size="14.00">silencio</text>
</g>
<!-- silencio&#45;&gt;pej -->
<g id="edge9" class="edge"><title>silencio&#45;&gt;pej</title>
<path fill="none" stroke="black" d="M780.024,-1696.99C819.404,-1702.09 889.973,-1704.44 929,-1665 1009.3,-1583.85 1013.67,-1206.1 1013.27,-1099.23"/>
<polygon fill="black" stroke="black" points="1016.77,-1099.19 1013.21,-1089.2 1009.77,-1099.22 1016.77,-1099.19"/>
</g>
<!-- frases colgadas -->
<g id="node11" class="node"><title>frases colgadas</title>
<polygon fill="none" stroke="black" points="794,-1656 701,-1656 701,-1620 800,-1620 800,-1650 794,-1656"/>
<polyline fill="none" stroke="black" points="794,-1656 794,-1650 "/>
<polyline fill="none" stroke="black" points="800,-1650 794,-1650 "/>
<text text-anchor="middle" x="750.5" y="-1634.3" font-family="Times,serif" font-size="14.00">frases colgadas</text>
</g>
<!-- frases colgadas&#45;&gt;pej -->
<g id="edge10" class="edge"><title>frases colgadas&#45;&gt;pej</title>
<path fill="none" stroke="black" d="M800.161,-1644.9C840.267,-1647.63 895.773,-1644.12 929,-1611 1002.02,-1538.22 1011.6,-1199.83 1012.83,-1099.26"/>
<polygon fill="black" stroke="black" points="1016.33,-1099.27 1012.93,-1089.24 1009.33,-1099.2 1016.33,-1099.27"/>
</g>
<!-- cachunk -->
<g id="node12" class="node"><title>cachunk</title>
<polygon fill="none" stroke="black" points="775.5,-1602 719.5,-1602 719.5,-1566 781.5,-1566 781.5,-1596 775.5,-1602"/>
<polyline fill="none" stroke="black" points="775.5,-1602 775.5,-1596 "/>
<polyline fill="none" stroke="black" points="781.5,-1596 775.5,-1596 "/>
<text text-anchor="middle" x="750.5" y="-1580.3" font-family="Times,serif" font-size="14.00">cachunk</text>
</g>
<!-- cachunk&#45;&gt;pej -->
<g id="edge11" class="edge"><title>cachunk&#45;&gt;pej</title>
<path fill="none" stroke="black" d="M781.526,-1589.03C821.008,-1593.77 889.93,-1595.29 929,-1557 994.811,-1492.5 1009.34,-1192.93 1012.29,-1099.15"/>
<polygon fill="black" stroke="black" points="1015.8,-1099.1 1012.59,-1089 1008.8,-1098.9 1015.8,-1099.1"/>
</g>
<!-- pensar lo mismo que otra persona -->
<g id="node13" class="node"><title>pensar lo mismo que otra persona</title>
<polygon fill="none" stroke="black" points="845.5,-1548 649.5,-1548 649.5,-1512 851.5,-1512 851.5,-1542 845.5,-1548"/>
<polyline fill="none" stroke="black" points="845.5,-1548 845.5,-1542 "/>
<polyline fill="none" stroke="black" points="851.5,-1542 845.5,-1542 "/>
<text text-anchor="middle" x="750.5" y="-1526.3" font-family="Times,serif" font-size="14.00">pensar lo mismo que otra persona</text>
</g>
<!-- pensar lo mismo que otra persona&#45;&gt;pej -->
<g id="edge12" class="edge"><title>pensar lo mismo que otra persona&#45;&gt;pej</title>
<path fill="none" stroke="black" d="M851.693,-1535.35C879.879,-1531.83 908.423,-1522.75 929,-1503 987.547,-1446.81 1006.77,-1186.44 1011.62,-1099.42"/>
<polygon fill="black" stroke="black" points="1015.12,-1099.4 1012.16,-1089.23 1008.13,-1099.03 1015.12,-1099.4"/>
</g>
<!-- olvidarse cosas -->
<g id="node14" class="node"><title>olvidarse cosas</title>
<polygon fill="none" stroke="black" points="794,-1494 701,-1494 701,-1458 800,-1458 800,-1488 794,-1494"/>
<polyline fill="none" stroke="black" points="794,-1494 794,-1488 "/>
<polyline fill="none" stroke="black" points="800,-1488 794,-1488 "/>
<text text-anchor="middle" x="750.5" y="-1472.3" font-family="Times,serif" font-size="14.00">olvidarse cosas</text>
</g>
<!-- olvidarse cosas&#45;&gt;pej -->
<g id="edge13" class="edge"><title>olvidarse cosas&#45;&gt;pej</title>
<path fill="none" stroke="black" d="M800.024,-1482.37C839.77,-1484.71 894.839,-1480.92 929,-1449 980.368,-1401 1003.87,-1179.1 1010.75,-1099.51"/>
<polygon fill="black" stroke="black" points="1014.26,-1099.51 1011.61,-1089.26 1007.29,-1098.93 1014.26,-1099.51"/>
</g>
<!-- observar una coincidencia -->
<g id="node15" class="node"><title>observar una coincidencia</title>
<polygon fill="none" stroke="black" points="823.5,-1440 671.5,-1440 671.5,-1404 829.5,-1404 829.5,-1434 823.5,-1440"/>
<polyline fill="none" stroke="black" points="823.5,-1440 823.5,-1434 "/>
<polyline fill="none" stroke="black" points="829.5,-1434 823.5,-1434 "/>
<text text-anchor="middle" x="750.5" y="-1418.3" font-family="Times,serif" font-size="14.00">observar una coincidencia</text>
</g>
<!-- observar una coincidencia&#45;&gt;pej -->
<g id="edge14" class="edge"><title>observar una coincidencia&#45;&gt;pej</title>
<path fill="none" stroke="black" d="M829.502,-1428.3C863.863,-1426.9 902.385,-1419.01 929,-1395 973.321,-1355.01 1000.61,-1170.52 1009.65,-1099.23"/>
<polygon fill="black" stroke="black" points="1013.14,-1099.53 1010.9,-1089.18 1006.19,-1098.67 1013.14,-1099.53"/>
</g>
<!-- acordarse cosas -->
<g id="node16" class="node"><title>acordarse cosas</title>
<polygon fill="none" stroke="black" points="795,-1386 700,-1386 700,-1350 801,-1350 801,-1380 795,-1386"/>
<polyline fill="none" stroke="black" points="795,-1386 795,-1380 "/>
<polyline fill="none" stroke="black" points="801,-1380 795,-1380 "/>
<text text-anchor="middle" x="750.5" y="-1364.3" font-family="Times,serif" font-size="14.00">acordarse cosas</text>
</g>
<!-- acordarse cosas&#45;&gt;pej -->
<g id="edge15" class="edge"><title>acordarse cosas&#45;&gt;pej</title>
<path fill="none" stroke="black" d="M801.338,-1373.71C840.521,-1375.37 894.135,-1370.97 929,-1341 1001.42,-1278.75 1012.28,-1155.2 1013.32,-1099.46"/>
<polygon fill="black" stroke="black" points="1016.82,-1099.28 1013.42,-1089.25 1009.82,-1099.22 1016.82,-1099.28"/>
</g>
<!-- sorpresa -->
<g id="node17" class="node"><title>sorpresa</title>
<polygon fill="none" stroke="black" points="775.5,-1332 719.5,-1332 719.5,-1296 781.5,-1296 781.5,-1326 775.5,-1332"/>
<polyline fill="none" stroke="black" points="775.5,-1332 775.5,-1326 "/>
<polyline fill="none" stroke="black" points="781.5,-1326 775.5,-1326 "/>
<text text-anchor="middle" x="750.5" y="-1310.3" font-family="Times,serif" font-size="14.00">sorpresa</text>
</g>
<!-- sorpresa&#45;&gt;pej -->
<g id="edge16" class="edge"><title>sorpresa&#45;&gt;pej</title>
<path fill="none" stroke="black" d="M781.771,-1317.93C820.267,-1321.2 886.793,-1320.81 929,-1287 987.702,-1239.97 1005.46,-1146.45 1010.77,-1099.41"/>
<polygon fill="black" stroke="black" points="1014.27,-1099.61 1011.8,-1089.31 1007.31,-1098.9 1014.27,-1099.61"/>
</g>
<!-- seppo enojado -->
<g id="node18" class="node"><title>seppo enojado</title>
<polygon fill="none" stroke="black" points="792,-1278 703,-1278 703,-1242 798,-1242 798,-1272 792,-1278"/>
<polyline fill="none" stroke="black" points="792,-1278 792,-1272 "/>
<polyline fill="none" stroke="black" points="798,-1272 792,-1272 "/>
<text text-anchor="middle" x="750.5" y="-1256.3" font-family="Times,serif" font-size="14.00">seppo enojado</text>
</g>
<!-- seppo enojado&#45;&gt;pej -->
<g id="edge17" class="edge"><title>seppo enojado&#45;&gt;pej</title>
<path fill="none" stroke="black" d="M798.046,-1263.95C836.585,-1264.82 890.993,-1260.23 929,-1233 974.238,-1200.59 996.944,-1136.38 1006.74,-1099.27"/>
<polygon fill="black" stroke="black" points="1010.24,-1099.68 1009.27,-1089.13 1003.45,-1097.99 1010.24,-1099.68"/>
</g>
<!-- estornudar -->
<g id="node19" class="node"><title>estornudar</title>
<polygon fill="none" stroke="black" points="781.5,-1224 713.5,-1224 713.5,-1188 787.5,-1188 787.5,-1218 781.5,-1224"/>
<polyline fill="none" stroke="black" points="781.5,-1224 781.5,-1218 "/>
<polyline fill="none" stroke="black" points="787.5,-1218 781.5,-1218 "/>
<text text-anchor="middle" x="750.5" y="-1202.3" font-family="Times,serif" font-size="14.00">estornudar</text>
</g>
<!-- estornudar&#45;&gt;pej -->
<g id="edge18" class="edge"><title>estornudar&#45;&gt;pej</title>
<path fill="none" stroke="black" d="M787.752,-1208.08C825.563,-1208.59 885.306,-1204.62 929,-1179 961.341,-1160.04 985.734,-1123.4 999.685,-1098.1"/>
<polygon fill="black" stroke="black" points="1002.91,-1099.48 1004.52,-1089.01 996.73,-1096.2 1002.91,-1099.48"/>
</g>
<!-- toser -->
<g id="node20" class="node"><title>toser</title>
<polygon fill="none" stroke="black" points="771.5,-1170 723.5,-1170 723.5,-1134 777.5,-1134 777.5,-1164 771.5,-1170"/>
<polyline fill="none" stroke="black" points="771.5,-1170 771.5,-1164 "/>
<polyline fill="none" stroke="black" points="777.5,-1164 771.5,-1164 "/>
<text text-anchor="middle" x="750.5" y="-1148.3" font-family="Times,serif" font-size="14.00">toser</text>
</g>
<!-- toser&#45;&gt;pej -->
<g id="edge19" class="edge"><title>toser&#45;&gt;pej</title>
<path fill="none" stroke="black" d="M777.633,-1151.42C813.028,-1149.88 877.679,-1144.38 929,-1125 947.845,-1117.88 966.888,-1106.1 982.067,-1095.36"/>
<polygon fill="black" stroke="black" points="984.506,-1097.91 990.527,-1089.19 980.384,-1092.25 984.506,-1097.91"/>
</g>
<!-- bocina -->
<g id="node21" class="node"><title>bocina</title>
<polygon fill="none" stroke="black" points="771.5,-1116 723.5,-1116 723.5,-1080 777.5,-1080 777.5,-1110 771.5,-1116"/>
<polyline fill="none" stroke="black" points="771.5,-1116 771.5,-1110 "/>
<polyline fill="none" stroke="black" points="777.5,-1110 771.5,-1110 "/>
<text text-anchor="middle" x="750.5" y="-1094.3" font-family="Times,serif" font-size="14.00">bocina</text>
</g>
<!-- bocina&#45;&gt;pej -->
<g id="edge20" class="edge"><title>bocina&#45;&gt;pej</title>
<path fill="none" stroke="black" d="M777.53,-1095.31C818.514,-1091.08 899.117,-1082.76 954.503,-1077.04"/>
<polygon fill="black" stroke="black" points="954.949,-1080.51 964.537,-1076 954.23,-1073.55 954.949,-1080.51"/>
</g>
<!-- pelotudeces -->
<g id="node22" class="node"><title>pelotudeces</title>
<polygon fill="none" stroke="black" points="784.5,-1062 710.5,-1062 710.5,-1026 790.5,-1026 790.5,-1056 784.5,-1062"/>
<polyline fill="none" stroke="black" points="784.5,-1062 784.5,-1056 "/>
<polyline fill="none" stroke="black" points="790.5,-1056 784.5,-1056 "/>
<text text-anchor="middle" x="750.5" y="-1040.3" font-family="Times,serif" font-size="14.00">pelotudeces</text>
</g>
<!-- pelotudeces&#45;&gt;pej -->
<g id="edge21" class="edge"><title>pelotudeces&#45;&gt;pej</title>
<path fill="none" stroke="black" d="M790.649,-1048.04C834.104,-1052.53 904.686,-1059.82 954.658,-1064.98"/>
<polygon fill="black" stroke="black" points="954.371,-1068.47 964.677,-1066.01 955.09,-1061.5 954.371,-1068.47"/>
</g>
<!-- roles -->
<g id="node23" class="node"><title>roles</title>
<polygon fill="none" stroke="black" points="889.5,-1008 605.5,-1008 605.5,-972 895.5,-972 895.5,-1002 889.5,-1008"/>
<polyline fill="none" stroke="black" points="889.5,-1008 889.5,-1002 "/>
<polyline fill="none" stroke="black" points="895.5,-1002 889.5,-1002 "/>
<text text-anchor="middle" x="750.5" y="-986.3" font-family="Times,serif" font-size="14.00">pensar en los roles que toma la gente en la oficina</text>
</g>
<!-- roles&#45;&gt;pej -->
<g id="edge22" class="edge"><title>roles&#45;&gt;pej</title>
<path fill="none" stroke="black" d="M895.73,-1006.64C907.14,-1009.56 918.357,-1012.98 929,-1017 947.845,-1024.12 966.888,-1035.9 982.067,-1046.64"/>
<polygon fill="black" stroke="black" points="980.384,-1049.75 990.527,-1052.81 984.506,-1044.09 980.384,-1049.75"/>
</g>
<!-- seppo a secas -->
<g id="node24" class="node"><title>seppo a secas</title>
<polygon fill="none" stroke="black" points="789.5,-954 705.5,-954 705.5,-918 795.5,-918 795.5,-948 789.5,-954"/>
<polyline fill="none" stroke="black" points="789.5,-954 789.5,-948 "/>
<polyline fill="none" stroke="black" points="795.5,-948 789.5,-948 "/>
<text text-anchor="middle" x="750.5" y="-932.3" font-family="Times,serif" font-size="14.00">seppo a secas</text>
</g>
<!-- seppo a secas&#45;&gt;pej -->
<g id="edge23" class="edge"><title>seppo a secas&#45;&gt;pej</title>
<path fill="none" stroke="black" d="M795.72,-933.883C833.578,-934.042 888.264,-939.113 929,-963 961.341,-981.965 985.734,-1018.6 999.685,-1043.9"/>
<polygon fill="black" stroke="black" points="996.73,-1045.8 1004.52,-1052.99 1002.91,-1042.52 996.73,-1045.8"/>
</g>
<!-- bostezar -->
<g id="node25" class="node"><title>bostezar</title>
<polygon fill="none" stroke="black" points="494.5,-1224 438.5,-1224 438.5,-1188 500.5,-1188 500.5,-1218 494.5,-1224"/>
<polyline fill="none" stroke="black" points="494.5,-1224 494.5,-1218 "/>
<polyline fill="none" stroke="black" points="500.5,-1218 494.5,-1218 "/>
<text text-anchor="middle" x="469.5" y="-1202.3" font-family="Times,serif" font-size="14.00">bostezar</text>
</g>
<!-- bostezar&#45;&gt;estornudar -->
<g id="edge48" class="edge"><title>bostezar&#45;&gt;estornudar</title>
<path fill="none" stroke="black" d="M500.623,-1206C549.305,-1206 645.612,-1206 703.103,-1206"/>
<polygon fill="black" stroke="black" points="703.366,-1209.5 713.366,-1206 703.366,-1202.5 703.366,-1209.5"/>
</g>
<!-- chistes malos -->
<g id="node26" class="node"><title>chistes malos</title>
<polygon fill="none" stroke="black" points="789.5,-900 705.5,-900 705.5,-864 795.5,-864 795.5,-894 789.5,-900"/>
<polyline fill="none" stroke="black" points="789.5,-900 789.5,-894 "/>
<polyline fill="none" stroke="black" points="795.5,-894 789.5,-894 "/>
<text text-anchor="middle" x="750.5" y="-878.3" font-family="Times,serif" font-size="14.00">chistes malos</text>
</g>
<!-- chistes malos&#45;&gt;pej -->
<g id="edge24" class="edge"><title>chistes malos&#45;&gt;pej</title>
<path fill="none" stroke="black" d="M795.753,-878.106C834.403,-877.005 890.233,-881.224 929,-909 974.238,-941.412 996.944,-1005.62 1006.74,-1042.73"/>
<polygon fill="black" stroke="black" points="1003.45,-1044.01 1009.27,-1052.87 1010.24,-1042.32 1003.45,-1044.01"/>
</g>
<!-- pe -->
<g id="node27" class="node"><title>pe</title>
<polygon fill="none" stroke="black" points="813,-846 682,-846 682,-810 819,-810 819,-840 813,-846"/>
<polyline fill="none" stroke="black" points="813,-846 813,-840 "/>
<polyline fill="none" stroke="black" points="819,-840 813,-840 "/>
<text text-anchor="middle" x="750.5" y="-824.3" font-family="Times,serif" font-size="14.00">pronunciación extraña</text>
</g>
<!-- pe&#45;&gt;pej -->
<g id="edge25" class="edge"><title>pe&#45;&gt;pej</title>
<path fill="none" stroke="black" d="M819.049,-822.828C855.215,-823.575 898.47,-830.542 929,-855 987.702,-902.028 1005.46,-995.552 1010.77,-1042.59"/>
<polygon fill="black" stroke="black" points="1007.31,-1043.1 1011.8,-1052.69 1014.27,-1042.39 1007.31,-1043.1"/>
</g>
<!-- pulgares bailarines -->
<g id="node28" class="node"><title>pulgares bailarines</title>
<polygon fill="none" stroke="black" points="804,-792 691,-792 691,-756 810,-756 810,-786 804,-792"/>
<polyline fill="none" stroke="black" points="804,-792 804,-786 "/>
<polyline fill="none" stroke="black" points="810,-786 804,-786 "/>
<text text-anchor="middle" x="750.5" y="-770.3" font-family="Times,serif" font-size="14.00">pulgares bailarines</text>
</g>
<!-- pulgares bailarines&#45;&gt;pej -->
<g id="edge26" class="edge"><title>pulgares bailarines&#45;&gt;pej</title>
<path fill="none" stroke="black" d="M810.331,-768.026C848.414,-767.429 896.735,-773.264 929,-801 1001.42,-863.253 1012.28,-986.802 1013.32,-1042.54"/>
<polygon fill="black" stroke="black" points="1009.82,-1042.78 1013.42,-1052.75 1016.82,-1042.72 1009.82,-1042.78"/>
</g>
<!-- estar a un paso -->
<g id="node29" class="node"><title>estar a un paso</title>
<polygon fill="none" stroke="black" points="793.5,-738 701.5,-738 701.5,-702 799.5,-702 799.5,-732 793.5,-738"/>
<polyline fill="none" stroke="black" points="793.5,-738 793.5,-732 "/>
<polyline fill="none" stroke="black" points="799.5,-732 793.5,-732 "/>
<text text-anchor="middle" x="750.5" y="-716.3" font-family="Times,serif" font-size="14.00">estar a un paso</text>
</g>
<!-- estar a un paso&#45;&gt;pej -->
<g id="edge27" class="edge"><title>estar a un paso&#45;&gt;pej</title>
<path fill="none" stroke="black" d="M799.739,-713.944C839.312,-711.793 894.285,-715.68 929,-747 973.321,-786.988 1000.61,-971.476 1009.65,-1042.77"/>
<polygon fill="black" stroke="black" points="1006.19,-1043.33 1010.9,-1052.82 1013.14,-1042.47 1006.19,-1043.33"/>
</g>
<!-- la oficina -->
<g id="node30" class="node"><title>la oficina</title>
<polygon fill="none" stroke="black" points="778.5,-684 716.5,-684 716.5,-648 784.5,-648 784.5,-678 778.5,-684"/>
<polyline fill="none" stroke="black" points="778.5,-684 778.5,-678 "/>
<polyline fill="none" stroke="black" points="784.5,-678 778.5,-678 "/>
<text text-anchor="middle" x="750.5" y="-662.3" font-family="Times,serif" font-size="14.00">la oficina</text>
</g>
<!-- la oficina&#45;&gt;pej -->
<g id="edge28" class="edge"><title>la oficina&#45;&gt;pej</title>
<path fill="none" stroke="black" d="M784.679,-660.881C824.328,-656.786 890.17,-656.714 929,-693 980.368,-741.002 1003.87,-962.9 1010.75,-1042.49"/>
<polygon fill="black" stroke="black" points="1007.29,-1043.07 1011.61,-1052.74 1014.26,-1042.49 1007.29,-1043.07"/>
</g>
<!-- dispersion -->
<g id="node31" class="node"><title>dispersion</title>
<polygon fill="none" stroke="black" points="780.5,-630 714.5,-630 714.5,-594 786.5,-594 786.5,-624 780.5,-630"/>
<polyline fill="none" stroke="black" points="780.5,-630 780.5,-624 "/>
<polyline fill="none" stroke="black" points="786.5,-624 780.5,-624 "/>
<text text-anchor="middle" x="750.5" y="-608.3" font-family="Times,serif" font-size="14.00">dispersion</text>
</g>
<!-- dispersion&#45;&gt;pej -->
<g id="edge29" class="edge"><title>dispersion&#45;&gt;pej</title>
<path fill="none" stroke="black" d="M786.609,-606.524C826.582,-602.443 891.218,-602.74 929,-639 987.547,-695.189 1006.77,-955.556 1011.62,-1042.58"/>
<polygon fill="black" stroke="black" points="1008.13,-1042.97 1012.16,-1052.77 1015.12,-1042.6 1008.13,-1042.97"/>
</g>
<!-- ambulancia -->
<g id="node32" class="node"><title>ambulancia</title>
<polygon fill="none" stroke="black" points="503.5,-1116 429.5,-1116 429.5,-1080 509.5,-1080 509.5,-1110 503.5,-1116"/>
<polyline fill="none" stroke="black" points="503.5,-1116 503.5,-1110 "/>
<polyline fill="none" stroke="black" points="509.5,-1110 503.5,-1110 "/>
<text text-anchor="middle" x="469.5" y="-1094.3" font-family="Times,serif" font-size="14.00">ambulancia</text>
</g>
<!-- ambulancia&#45;&gt;bocina -->
<g id="edge40" class="edge"><title>ambulancia&#45;&gt;bocina</title>
<path fill="none" stroke="black" d="M509.588,-1098C563.605,-1098 660.352,-1098 712.977,-1098"/>
<polygon fill="black" stroke="black" points="713.197,-1101.5 723.197,-1098 713.197,-1094.5 713.197,-1101.5"/>
</g>
<!-- esperar chistes malos -->
<g id="node33" class="node"><title>esperar chistes malos</title>
<polygon fill="none" stroke="black" points="530,-927 403,-927 403,-891 536,-891 536,-921 530,-927"/>
<polyline fill="none" stroke="black" points="530,-927 530,-921 "/>
<polyline fill="none" stroke="black" points="536,-921 530,-921 "/>
<text text-anchor="middle" x="469.5" y="-905.3" font-family="Times,serif" font-size="14.00">esperar chistes malos</text>
</g>
<!-- esperar chistes malos&#45;&gt;chistes malos -->
<g id="edge41" class="edge"><title>esperar chistes malos&#45;&gt;chistes malos</title>
<path fill="none" stroke="black" d="M536.266,-902.636C584.793,-897.939 650.026,-891.627 695.511,-887.225"/>
<polygon fill="black" stroke="black" points="695.86,-890.707 705.477,-886.26 695.186,-883.74 695.86,-890.707"/>
</g>
<!-- chiste de Ramiro -->
<g id="node34" class="node"><title>chiste de Ramiro</title>
<polygon fill="none" stroke="black" points="518.5,-873 414.5,-873 414.5,-837 524.5,-837 524.5,-867 518.5,-873"/>
<polyline fill="none" stroke="black" points="518.5,-873 518.5,-867 "/>
<polyline fill="none" stroke="black" points="524.5,-867 518.5,-867 "/>
<text text-anchor="middle" x="469.5" y="-851.3" font-family="Times,serif" font-size="14.00">chiste de Ramiro</text>
</g>
<!-- chiste de Ramiro&#45;&gt;chistes malos -->
<g id="edge42" class="edge"><title>chiste de Ramiro&#45;&gt;chistes malos</title>
<path fill="none" stroke="black" d="M524.625,-860.238C573.742,-864.991 645.803,-871.965 695.028,-876.728"/>
<polygon fill="black" stroke="black" points="694.878,-880.23 705.169,-877.71 695.552,-873.263 694.878,-880.23"/>
</g>
<!-- unchunk -->
<g id="node35" class="node"><title>unchunk</title>
<polygon fill="none" stroke="black" points="495,-1602 438,-1602 438,-1566 501,-1566 501,-1596 495,-1602"/>
<polyline fill="none" stroke="black" points="495,-1602 495,-1596 "/>
<polyline fill="none" stroke="black" points="501,-1596 495,-1596 "/>
<text text-anchor="middle" x="469.5" y="-1580.3" font-family="Times,serif" font-size="14.00">unchunk</text>
</g>
<!-- unchunk&#45;&gt;cachunk -->
<g id="edge43" class="edge"><title>unchunk&#45;&gt;cachunk</title>
<path fill="none" stroke="black" d="M501.156,-1584C551.69,-1584 652.489,-1584 708.891,-1584"/>
<polygon fill="black" stroke="black" points="709.217,-1587.5 719.217,-1584 709.217,-1580.5 709.217,-1587.5"/>
</g>
<!-- andar descalzo -->
<g id="node36" class="node"><title>andar descalzo</title>
<polygon fill="none" stroke="black" points="512,-36 421,-36 421,-0 518,-0 518,-30 512,-36"/>
<polyline fill="none" stroke="black" points="512,-36 512,-30 "/>
<polyline fill="none" stroke="black" points="518,-30 512,-30 "/>
<text text-anchor="middle" x="469.5" y="-14.3" font-family="Times,serif" font-size="14.00">andar descalzo</text>
</g>
<!-- seppo -->
<g id="node55" class="node"><title>seppo</title>
<polygon fill="none" stroke="black" points="771.5,-36 723.5,-36 723.5,-0 777.5,-0 777.5,-30 771.5,-36"/>
<polyline fill="none" stroke="black" points="771.5,-36 771.5,-30 "/>
<polyline fill="none" stroke="black" points="777.5,-30 771.5,-30 "/>
<text text-anchor="middle" x="750.5" y="-14.3" font-family="Times,serif" font-size="14.00">seppo</text>
</g>
<!-- andar descalzo&#45;&gt;seppo -->
<g id="edge44" class="edge"><title>andar descalzo&#45;&gt;seppo</title>
<path fill="none" stroke="black" d="M518.145,-18C573.504,-18 663.607,-18 713.459,-18"/>
<polygon fill="black" stroke="black" points="713.459,-21.5001 723.459,-18 713.459,-14.5001 713.459,-21.5001"/>
</g>
<!-- pin naranja -->
<g id="node37" class="node"><title>pin naranja</title>
<polygon fill="none" stroke="black" points="87.5,-36 16.5,-36 16.5,-0 93.5,-0 93.5,-30 87.5,-36"/>
<polyline fill="none" stroke="black" points="87.5,-36 87.5,-30 "/>
<polyline fill="none" stroke="black" points="93.5,-30 87.5,-30 "/>
<text text-anchor="middle" x="55" y="-14.3" font-family="Times,serif" font-size="14.00">pin naranja</text>
</g>
<!-- camiseta -->
<g id="node41" class="node"><title>camiseta</title>
<polygon fill="none" stroke="black" points="361,-36 146,-36 146,-0 367,-0 367,-30 361,-36"/>
<polyline fill="none" stroke="black" points="361,-36 361,-30 "/>
<polyline fill="none" stroke="black" points="367,-30 361,-30 "/>
<text text-anchor="middle" x="256.5" y="-14.3" font-family="Times,serif" font-size="14.00">camiseta de lucas (andando descalzo)</text>
</g>
<!-- pin naranja&#45;&gt;camiseta -->
<g id="edge45" class="edge"><title>pin naranja&#45;&gt;camiseta</title>
<path fill="none" stroke="black" d="M93.5244,-18C105.931,-18 120.477,-18 135.671,-18"/>
<polygon fill="black" stroke="black" points="135.733,-21.5001 145.733,-18 135.733,-14.5001 135.733,-21.5001"/>
</g>
<!-- dot -->
<g id="node38" class="node"><title>dot</title>
<polygon fill="none" stroke="black" points="771.5,-576 723.5,-576 723.5,-540 777.5,-540 777.5,-570 771.5,-576"/>
<polyline fill="none" stroke="black" points="771.5,-576 771.5,-570 "/>
<polyline fill="none" stroke="black" points="777.5,-570 771.5,-570 "/>
<text text-anchor="middle" x="750.5" y="-554.3" font-family="Times,serif" font-size="14.00">dot</text>
</g>
<!-- dot&#45;&gt;pej -->
<g id="edge34" class="edge"><title>dot&#45;&gt;pej</title>
<path fill="none" stroke="black" d="M777.582,-553.468C816.261,-548.381 888.594,-545.402 929,-585 994.811,-649.496 1009.34,-949.066 1012.29,-1042.85"/>
<polygon fill="black" stroke="black" points="1008.8,-1043.1 1012.59,-1053 1015.8,-1042.9 1008.8,-1043.1"/>
</g>
<!-- sl -->
<g id="node39" class="node"><title>sl</title>
<polygon fill="none" stroke="black" points="771.5,-522 723.5,-522 723.5,-486 777.5,-486 777.5,-516 771.5,-522"/>
<polyline fill="none" stroke="black" points="771.5,-522 771.5,-516 "/>
<polyline fill="none" stroke="black" points="777.5,-516 771.5,-516 "/>
<text text-anchor="middle" x="750.5" y="-500.3" font-family="Times,serif" font-size="14.00">sl</text>
</g>
<!-- sl&#45;&gt;pej -->
<g id="edge35" class="edge"><title>sl&#45;&gt;pej</title>
<path fill="none" stroke="black" d="M777.667,-499.382C816.455,-494.184 888.929,-491.063 929,-531 1002.02,-603.779 1011.6,-942.173 1012.83,-1042.74"/>
<polygon fill="black" stroke="black" points="1009.33,-1042.8 1012.93,-1052.76 1016.33,-1042.73 1009.33,-1042.8"/>
</g>
<!-- rc -->
<g id="node40" class="node"><title>rc</title>
<polygon fill="none" stroke="black" points="523.5,-576 409.5,-576 409.5,-540 529.5,-540 529.5,-570 523.5,-576"/>
<polyline fill="none" stroke="black" points="523.5,-576 523.5,-570 "/>
<polyline fill="none" stroke="black" points="529.5,-570 523.5,-570 "/>
<text text-anchor="middle" x="469.5" y="-554.3" font-family="Times,serif" font-size="14.00">referencias cíclicas</text>
</g>
<!-- rc&#45;&gt;dot -->
<g id="edge50" class="edge"><title>rc&#45;&gt;dot</title>
<path fill="none" stroke="black" d="M529.669,-558C585.169,-558 666.404,-558 713.006,-558"/>
<polygon fill="black" stroke="black" points="713.237,-561.5 723.237,-558 713.237,-554.5 713.237,-561.5"/>
</g>
<!-- camiseta&#45;&gt;andar descalzo -->
<g id="edge46" class="edge"><title>camiseta&#45;&gt;andar descalzo</title>
<path fill="none" stroke="black" d="M367.017,-18C382.13,-18 397.133,-18 410.783,-18"/>
<polygon fill="black" stroke="black" points="410.937,-21.5001 420.937,-18 410.937,-14.5001 410.937,-21.5001"/>
</g>
<!-- lcdtm -->
<g id="node42" class="node"><title>lcdtm</title>
<polygon fill="none" stroke="black" points="813,-468 682,-468 682,-432 819,-432 819,-462 813,-468"/>
<polyline fill="none" stroke="black" points="813,-468 813,-462 "/>
<polyline fill="none" stroke="black" points="819,-462 813,-462 "/>
<text text-anchor="middle" x="750.5" y="-446.3" font-family="Times,serif" font-size="14.00">la concha de tu madre</text>
</g>
<!-- lcdtm&#45;&gt;pej -->
<g id="edge31" class="edge"><title>lcdtm&#45;&gt;pej</title>
<path fill="none" stroke="black" d="M819.202,-442.23C856.561,-441.89 900.936,-448.64 929,-477 1009.3,-558.145 1013.67,-935.9 1013.27,-1042.77"/>
<polygon fill="black" stroke="black" points="1009.77,-1042.78 1013.21,-1052.8 1016.77,-1042.81 1009.77,-1042.78"/>
</g>
<!-- bomberos -->
<g id="node43" class="node"><title>bomberos</title>
<polygon fill="none" stroke="black" points="286,-1116 221,-1116 221,-1080 292,-1080 292,-1110 286,-1116"/>
<polyline fill="none" stroke="black" points="286,-1116 286,-1110 "/>
<polyline fill="none" stroke="black" points="292,-1110 286,-1110 "/>
<text text-anchor="middle" x="256.5" y="-1094.3" font-family="Times,serif" font-size="14.00">bomberos</text>
</g>
<!-- bomberos&#45;&gt;ambulancia -->
<g id="edge39" class="edge"><title>bomberos&#45;&gt;ambulancia</title>
<path fill="none" stroke="black" d="M292.342,-1098C326.941,-1098 380.303,-1098 419.232,-1098"/>
<polygon fill="black" stroke="black" points="419.299,-1101.5 429.299,-1098 419.299,-1094.5 419.299,-1101.5"/>
</g>
<!-- int -->
<g id="node44" class="node"><title>int</title>
<polygon fill="none" stroke="black" points="509,-414 424,-414 424,-378 515,-378 515,-408 509,-414"/>
<polyline fill="none" stroke="black" points="509,-414 509,-408 "/>
<polyline fill="none" stroke="black" points="515,-408 509,-408 "/>
<text text-anchor="middle" x="469.5" y="-392.3" font-family="Times,serif" font-size="14.00">interconexión</text>
</g>
<!-- asoc -->
<g id="node45" class="node"><title>asoc</title>
<polygon fill="none" stroke="black" points="781.5,-414 713.5,-414 713.5,-378 787.5,-378 787.5,-408 781.5,-414"/>
<polyline fill="none" stroke="black" points="781.5,-414 781.5,-408 "/>
<polyline fill="none" stroke="black" points="787.5,-408 781.5,-408 "/>
<text text-anchor="middle" x="750.5" y="-392.3" font-family="Times,serif" font-size="14.00">asociación</text>
</g>
<!-- int&#45;&gt;asoc -->
<g id="edge47" class="edge"><title>int&#45;&gt;asoc</title>
<path fill="none" stroke="black" d="M515.017,-396C566.507,-396 650.877,-396 703.138,-396"/>
<polygon fill="black" stroke="black" points="703.143,-399.5 713.142,-396 703.142,-392.5 703.143,-399.5"/>
</g>
<!-- asoc&#45;&gt;pej -->
<g id="edge32" class="edge"><title>asoc&#45;&gt;pej</title>
<path fill="none" stroke="black" d="M787.745,-390.028C828.155,-385.636 892.6,-385.788 929,-423 973.087,-468.07 1003.95,-923.529 1011.31,-1042.63"/>
<polygon fill="black" stroke="black" points="1007.83,-1043.01 1011.93,-1052.78 1014.81,-1042.58 1007.83,-1043.01"/>
</g>
<!-- mv -->
<g id="node46" class="node"><title>mv</title>
<polygon fill="none" stroke="black" points="799,-360 696,-360 696,-324 805,-324 805,-354 799,-360"/>
<polyline fill="none" stroke="black" points="799,-360 799,-354 "/>
<polyline fill="none" stroke="black" points="805,-354 799,-354 "/>
<text text-anchor="middle" x="750.5" y="-338.3" font-family="Times,serif" font-size="14.00">Mariano Vicente</text>
</g>
<!-- mv&#45;&gt;pej -->
<g id="edge33" class="edge"><title>mv&#45;&gt;pej</title>
<path fill="none" stroke="black" d="M805.35,-334.492C845.149,-332.216 897.662,-336.648 929,-369 976.718,-418.263 1005.14,-916.6 1011.59,-1042.32"/>
<polygon fill="black" stroke="black" points="1008.11,-1042.85 1012.11,-1052.66 1015.1,-1042.5 1008.11,-1042.85"/>
</g>
<!-- buffalo -->
<g id="node47" class="node"><title>buffalo</title>
<polygon fill="none" stroke="black" points="923,-306 572,-306 572,-270 929,-270 929,-300 923,-306"/>
<polyline fill="none" stroke="black" points="923,-306 923,-300 "/>
<polyline fill="none" stroke="black" points="929,-300 923,-300 "/>
<text text-anchor="middle" x="750.5" y="-284.3" font-family="Times,serif" font-size="14.00">Buffalo buffalo buffalo buffalo buffalo buffalo buffalo buffalo</text>
</g>
<!-- buffalo&#45;&gt;pej -->
<g id="edge36" class="edge"><title>buffalo&#45;&gt;pej</title>
<path fill="none" stroke="black" d="M918.997,-306.047C922.523,-308.763 925.869,-311.74 929,-315 980.44,-368.556 1006.33,-911.613 1011.86,-1042.66"/>
<polygon fill="black" stroke="black" points="1008.37,-1042.87 1012.28,-1052.71 1015.36,-1042.57 1008.37,-1042.87"/>
</g>
<!-- fais -->
<g id="node48" class="node"><title>fais</title>
<polygon fill="none" stroke="black" points="104,-252 0,-252 0,-216 110,-216 110,-246 104,-252"/>
<polyline fill="none" stroke="black" points="104,-252 104,-246 "/>
<polyline fill="none" stroke="black" points="110,-246 104,-246 "/>
<text text-anchor="middle" x="55" y="-230.3" font-family="Times,serif" font-size="14.00">Free as in speech</text>
</g>
<!-- faib -->
<g id="node49" class="node"><title>faib</title>
<polygon fill="none" stroke="black" points="299,-252 208,-252 208,-216 305,-216 305,-246 299,-252"/>
<polyline fill="none" stroke="black" points="299,-252 299,-246 "/>
<polyline fill="none" stroke="black" points="305,-246 299,-246 "/>
<text text-anchor="middle" x="256.5" y="-230.3" font-family="Times,serif" font-size="14.00">Free as in beer</text>
</g>
<!-- fais&#45;&gt;faib -->
<g id="edge51" class="edge"><title>fais&#45;&gt;faib</title>
<path fill="none" stroke="black" d="M110.251,-234C137.261,-234 169.936,-234 197.449,-234"/>
<polygon fill="black" stroke="black" points="197.719,-237.5 207.719,-234 197.719,-230.5 197.719,-237.5"/>
</g>
<!-- faibe -->
<g id="node50" class="node"><title>faibe</title>
<polygon fill="none" stroke="black" points="512,-252 421,-252 421,-216 518,-216 518,-246 512,-252"/>
<polyline fill="none" stroke="black" points="512,-252 512,-246 "/>
<polyline fill="none" stroke="black" points="518,-246 512,-246 "/>
<text text-anchor="middle" x="469.5" y="-230.3" font-family="Times,serif" font-size="14.00">Free as in bear</text>
</g>
<!-- faib&#45;&gt;faibe -->
<g id="edge52" class="edge"><title>faib&#45;&gt;faibe</title>
<path fill="none" stroke="black" d="M305.116,-234C336.399,-234 377.517,-234 410.677,-234"/>
<polygon fill="black" stroke="black" points="410.693,-237.5 420.693,-234 410.693,-230.5 410.693,-237.5"/>
</g>
<!-- wb -->
<g id="node51" class="node"><title>wb</title>
<polygon fill="none" stroke="black" points="783,-252 712,-252 712,-216 789,-216 789,-246 783,-252"/>
<polyline fill="none" stroke="black" points="783,-252 783,-246 "/>
<polyline fill="none" stroke="black" points="789,-246 783,-246 "/>
<text text-anchor="middle" x="750.5" y="-230.3" font-family="Times,serif" font-size="14.00">White bear</text>
</g>
<!-- faibe&#45;&gt;wb -->
<g id="edge53" class="edge"><title>faibe&#45;&gt;wb</title>
<path fill="none" stroke="black" d="M518.145,-234C569.398,-234 650.43,-234 701.731,-234"/>
<polygon fill="black" stroke="black" points="701.891,-237.5 711.891,-234 701.891,-230.5 701.891,-237.5"/>
</g>
<!-- wb&#45;&gt;pej -->
<g id="edge54" class="edge"><title>wb&#45;&gt;pej</title>
<path fill="none" stroke="black" d="M789.018,-227.739C829.646,-223.318 893.401,-223.664 929,-261 984.153,-318.844 1007.41,-906.485 1012.09,-1042.85"/>
<polygon fill="black" stroke="black" points="1008.59,-1043.04 1012.43,-1052.91 1015.59,-1042.8 1008.59,-1043.04"/>
</g>
<!-- comecoco -->
<g id="node52" class="node"><title>comecoco</title>
<polygon fill="none" stroke="black" points="802.5,-198 692.5,-198 692.5,-162 808.5,-162 808.5,-192 802.5,-198"/>
<polyline fill="none" stroke="black" points="802.5,-198 802.5,-192 "/>
<polyline fill="none" stroke="black" points="808.5,-192 802.5,-192 "/>
<text text-anchor="middle" x="750.5" y="-176.3" font-family="Times,serif" font-size="14.00">comerse la cabeza</text>
</g>
<!-- comecoco&#45;&gt;pej -->
<g id="edge37" class="edge"><title>comecoco&#45;&gt;pej</title>
<path fill="none" stroke="black" d="M808.898,-172.114C848.357,-170.179 898.881,-175.207 929,-207 987.842,-269.111 1008.39,-900.871 1012.28,-1042.8"/>
<polygon fill="black" stroke="black" points="1008.78,-1042.97 1012.55,-1052.87 1015.78,-1042.78 1008.78,-1042.97"/>
</g>
<!-- palabras -->
<g id="node53" class="node"><title>palabras</title>
<polygon fill="none" stroke="black" points="800.5,-144 694.5,-144 694.5,-108 806.5,-108 806.5,-138 800.5,-144"/>
<polyline fill="none" stroke="black" points="800.5,-144 800.5,-138 "/>
<polyline fill="none" stroke="black" points="806.5,-138 800.5,-138 "/>
<text text-anchor="middle" x="750.5" y="-122.3" font-family="Times,serif" font-size="14.00">juego de palabras</text>
</g>
<!-- palabras&#45;&gt;pej -->
<g id="edge38" class="edge"><title>palabras&#45;&gt;pej</title>
<path fill="none" stroke="black" d="M806.856,-118.173C846.633,-115.932 898.436,-120.555 929,-153 991.562,-219.414 1009.32,-895.951 1012.45,-1042.92"/>
<polygon fill="black" stroke="black" points="1008.95,-1043.02 1012.66,-1052.94 1015.95,-1042.87 1008.95,-1043.02"/>
</g>
<!-- cantito -->
<g id="node54" class="node"><title>cantito</title>
<polygon fill="none" stroke="black" points="801.5,-90 693.5,-90 693.5,-54 807.5,-54 807.5,-84 801.5,-90"/>
<polyline fill="none" stroke="black" points="801.5,-90 801.5,-84 "/>
<polyline fill="none" stroke="black" points="807.5,-84 801.5,-84 "/>
<text text-anchor="middle" x="750.5" y="-68.3" font-family="Times,serif" font-size="14.00">Cantito / bailecito</text>
</g>
<!-- cantito&#45;&gt;pej -->
<g id="edge55" class="edge"><title>cantito&#45;&gt;pej</title>
<path fill="none" stroke="black" d="M807.74,-64.0816C847.429,-61.9302 898.732,-66.7053 929,-99 995.177,-169.606 1010.14,-888.751 1012.59,-1042.27"/>
<polygon fill="black" stroke="black" points="1009.1,-1042.77 1012.75,-1052.71 1016.1,-1042.66 1009.1,-1042.77"/>
</g>
<!-- seppo&#45;&gt;pej -->
<g id="edge30" class="edge"><title>seppo&#45;&gt;pej</title>
<path fill="none" stroke="black" d="M777.718,-13.0662C816.912,-7.37313 890.299,-3.52073 929,-45 998.951,-119.972 1010.99,-885.05 1012.73,-1042.69"/>
<polygon fill="black" stroke="black" points="1009.24,-1043.01 1012.84,-1052.97 1016.24,-1042.93 1009.24,-1043.01"/>
</g>
<!-- 42 -->
<g id="node56" class="node"><title>42</title>
<polygon fill="none" stroke="black" points="490.5,-1386 442.5,-1386 442.5,-1350 496.5,-1350 496.5,-1380 490.5,-1386"/>
<polyline fill="none" stroke="black" points="490.5,-1386 490.5,-1380 "/>
<polyline fill="none" stroke="black" points="496.5,-1380 490.5,-1380 "/>
<text text-anchor="middle" x="469.5" y="-1364.3" font-family="Times,serif" font-size="14.00">42</text>
</g>
<!-- 42&#45;&gt;acordarse cosas -->
<g id="edge49" class="edge"><title>42&#45;&gt;acordarse cosas</title>
<path fill="none" stroke="black" d="M496.748,-1368C540.603,-1368 629.851,-1368 689.68,-1368"/>
<polygon fill="black" stroke="black" points="689.754,-1371.5 699.754,-1368 689.754,-1364.5 689.754,-1371.5"/>
</g>
</g>
</svg>
