<?xml version="1.0" encoding="UTF-8" standalone="no"?>
<!DOCTYPE svg PUBLIC "-//W3C//DTD SVG 1.1//EN"
 "http://www.w3.org/Graphics/SVG/1.1/DTD/svg11.dtd">
<!-- Generated by graphviz version 2.38.0 (20140413.2041)
 -->
<!-- Title: %3 Pages: 1 -->
<svg width="1071pt" height="2204pt"
 viewBox="0.00 0.00 1071.00 2204.00" xmlns="http://www.w3.org/2000/svg" xmlns:xlink="http://www.w3.org/1999/xlink">
<g id="graph0" class="graph" transform="scale(1 1) rotate(0) translate(4 2200)">
<title>%3</title>
<polygon fill="white" stroke="none" points="-4,4 -4,-2200 1067,-2200 1067,4 -4,4"/>
<!-- pej -->
<g id="node1" class="node"><title>pej</title>
<polygon fill="none" stroke="black" points="1057,-1116 965,-1116 965,-1080 1063,-1080 1063,-1110 1057,-1116"/>
<polyline fill="none" stroke="black" points="1057,-1116 1057,-1110 "/>
<polyline fill="none" stroke="black" points="1063,-1110 1057,-1110 "/>
<text text-anchor="middle" x="1014" y="-1094.3" font-family="Times,serif" font-size="14.00">perder el juego</text>
</g>
<!-- no tener la culpa -->
<g id="node2" class="node"><title>no tener la culpa</title>
<polygon fill="none" stroke="black" points="798,-2196 697,-2196 697,-2160 804,-2160 804,-2190 798,-2196"/>
<polyline fill="none" stroke="black" points="798,-2196 798,-2190 "/>
<polyline fill="none" stroke="black" points="804,-2190 798,-2190 "/>
<text text-anchor="middle" x="750.5" y="-2174.3" font-family="Times,serif" font-size="14.00">no tener la culpa</text>
</g>
<!-- no tener la culpa&#45;&gt;pej -->
<g id="edge2" class="edge"><title>no tener la culpa&#45;&gt;pej</title>
<path fill="none" stroke="black" d="M804.064,-2185.75C844.251,-2188.43 897.882,-2184.42 929,-2151 1000.78,-2073.91 1011.38,-1287.16 1012.8,-1126.54"/>
<polygon fill="black" stroke="black" points="1016.3,-1126.11 1012.88,-1116.08 1009.3,-1126.05 1016.3,-1126.11"/>
</g>
<!-- perder -->
<g id="node3" class="node"><title>perder</title>
<polygon fill="none" stroke="black" points="771.5,-2142 723.5,-2142 723.5,-2106 777.5,-2106 777.5,-2136 771.5,-2142"/>
<polyline fill="none" stroke="black" points="771.5,-2142 771.5,-2136 "/>
<polyline fill="none" stroke="black" points="777.5,-2136 771.5,-2136 "/>
<text text-anchor="middle" x="750.5" y="-2120.3" font-family="Times,serif" font-size="14.00">perder</text>
</g>
<!-- perder&#45;&gt;pej -->
<g id="edge1" class="edge"><title>perder&#45;&gt;pej</title>
<path fill="none" stroke="black" d="M777.707,-2128.92C816.885,-2134.6 890.253,-2138.44 929,-2097 997.058,-2024.22 1010.57,-1282.24 1012.67,-1126.56"/>
<polygon fill="black" stroke="black" points="1016.17,-1126.42 1012.8,-1116.38 1009.17,-1126.33 1016.17,-1126.42"/>
</g>
<!-- trigger -->
<g id="node4" class="node"><title>trigger</title>
<polygon fill="none" stroke="black" points="771.5,-2088 723.5,-2088 723.5,-2052 777.5,-2052 777.5,-2082 771.5,-2088"/>
<polyline fill="none" stroke="black" points="771.5,-2088 771.5,-2082 "/>
<polyline fill="none" stroke="black" points="777.5,-2082 771.5,-2082 "/>
<text text-anchor="middle" x="750.5" y="-2066.3" font-family="Times,serif" font-size="14.00">trigger</text>
</g>
<!-- trigger&#45;&gt;pej -->
<g id="edge3" class="edge"><title>trigger&#45;&gt;pej</title>
<path fill="none" stroke="black" d="M777.682,-2074.9C816.828,-2080.55 890.154,-2084.34 929,-2043 993.367,-1974.49 1009.73,-1276.69 1012.52,-1126.42"/>
<polygon fill="black" stroke="black" points="1016.03,-1126.24 1012.71,-1116.18 1009.03,-1126.12 1016.03,-1126.24"/>
</g>
<!-- get on my horse -->
<g id="node5" class="node"><title>get on my horse</title>
<polygon fill="none" stroke="black" points="797,-2034 698,-2034 698,-1998 803,-1998 803,-2028 797,-2034"/>
<polyline fill="none" stroke="black" points="797,-2034 797,-2028 "/>
<polyline fill="none" stroke="black" points="803,-2028 797,-2028 "/>
<text text-anchor="middle" x="750.5" y="-2012.3" font-family="Times,serif" font-size="14.00">get on my horse</text>
</g>
<!-- get on my horse&#45;&gt;pej -->
<g id="edge4" class="edge"><title>get on my horse&#45;&gt;pej</title>
<path fill="none" stroke="black" d="M803.113,-2023.57C843.313,-2026.29 897.429,-2022.42 929,-1989 989.635,-1924.81 1008.82,-1272.03 1012.36,-1126.61"/>
<polygon fill="black" stroke="black" points="1015.86,-1126.38 1012.6,-1116.3 1008.87,-1126.21 1015.86,-1126.38"/>
</g>
<!-- wget -->
<g id="node6" class="node"><title>wget</title>
<polygon fill="none" stroke="black" points="771.5,-1980 723.5,-1980 723.5,-1944 777.5,-1944 777.5,-1974 771.5,-1980"/>
<polyline fill="none" stroke="black" points="771.5,-1980 771.5,-1974 "/>
<polyline fill="none" stroke="black" points="777.5,-1974 771.5,-1974 "/>
<text text-anchor="middle" x="750.5" y="-1958.3" font-family="Times,serif" font-size="14.00">wget</text>
</g>
<!-- wget&#45;&gt;pej -->
<g id="edge5" class="edge"><title>wget&#45;&gt;pej</title>
<path fill="none" stroke="black" d="M777.624,-1966.84C816.693,-1972.42 889.92,-1976.12 929,-1935 985.935,-1875.09 1007.86,-1266.67 1012.17,-1126.64"/>
<polygon fill="black" stroke="black" points="1015.68,-1126.41 1012.48,-1116.31 1008.68,-1126.2 1015.68,-1126.41"/>
</g>
<!-- tener demasiados -->
<g id="node7" class="node"><title>tener demasiados</title>
<polygon fill="none" stroke="black" points="800,-1926 695,-1926 695,-1890 806,-1890 806,-1920 800,-1926"/>
<polyline fill="none" stroke="black" points="800,-1926 800,-1920 "/>
<polyline fill="none" stroke="black" points="806,-1920 800,-1920 "/>
<text text-anchor="middle" x="750.5" y="-1904.3" font-family="Times,serif" font-size="14.00">tener demasiados</text>
</g>
<!-- tener demasiados&#45;&gt;pej -->
<g id="edge6" class="edge"><title>tener demasiados&#45;&gt;pej</title>
<path fill="none" stroke="black" d="M806.292,-1915.66C846.048,-1917.89 898.076,-1913.32 929,-1881 982.265,-1825.33 1006.85,-1260.63 1011.97,-1126.48"/>
<polygon fill="black" stroke="black" points="1015.48,-1126.33 1012.36,-1116.21 1008.48,-1126.07 1015.48,-1126.33"/>
</g>
<!-- mandar a alguien al frente -->
<g id="node8" class="node"><title>mandar a alguien al frente</title>
<polygon fill="none" stroke="black" points="824.5,-1872 670.5,-1872 670.5,-1836 830.5,-1836 830.5,-1866 824.5,-1872"/>
<polyline fill="none" stroke="black" points="824.5,-1872 824.5,-1866 "/>
<polyline fill="none" stroke="black" points="830.5,-1866 824.5,-1866 "/>
<text text-anchor="middle" x="750.5" y="-1850.3" font-family="Times,serif" font-size="14.00">mandar a alguien al frente</text>
</g>
<!-- mandar a alguien al frente&#45;&gt;pej -->
<g id="edge7" class="edge"><title>mandar a alguien al frente&#45;&gt;pej</title>
<path fill="none" stroke="black" d="M830.626,-1861.95C865.436,-1860.94 904.008,-1852.91 929,-1827 978.573,-1775.6 1005.75,-1255.02 1011.73,-1126.55"/>
<polygon fill="black" stroke="black" points="1015.24,-1126.48 1012.2,-1116.33 1008.24,-1126.16 1015.24,-1126.48"/>
</g>
<!-- las pausas -->
<g id="node9" class="node"><title>las pausas</title>
<polygon fill="none" stroke="black" points="780,-1818 715,-1818 715,-1782 786,-1782 786,-1812 780,-1818"/>
<polyline fill="none" stroke="black" points="780,-1818 780,-1812 "/>
<polyline fill="none" stroke="black" points="786,-1812 780,-1812 "/>
<text text-anchor="middle" x="750.5" y="-1796.3" font-family="Times,serif" font-size="14.00">las pausas</text>
</g>
<!-- las pausas&#45;&gt;pej -->
<g id="edge8" class="edge"><title>las pausas&#45;&gt;pej</title>
<path fill="none" stroke="black" d="M786.337,-1805.84C826.673,-1810.43 892.26,-1810.75 929,-1773 974.921,-1725.82 1004.58,-1248.56 1011.46,-1126.37"/>
<polygon fill="black" stroke="black" points="1014.96,-1126.48 1012.02,-1116.3 1007.97,-1126.09 1014.96,-1126.48"/>
</g>
<!-- silencio -->
<g id="node10" class="node"><title>silencio</title>
<polygon fill="none" stroke="black" points="774,-1764 721,-1764 721,-1728 780,-1728 780,-1758 774,-1764"/>
<polyline fill="none" stroke="black" points="774,-1764 774,-1758 "/>
<polyline fill="none" stroke="black" points="780,-1758 774,-1758 "/>
<text text-anchor="middle" x="750.5" y="-1742.3" font-family="Times,serif" font-size="14.00">silencio</text>
</g>
<!-- silencio&#45;&gt;pej -->
<g id="edge9" class="edge"><title>silencio&#45;&gt;pej</title>
<path fill="none" stroke="black" d="M780.057,-1751.02C819.477,-1756.16 890.092,-1758.56 929,-1719 1012.9,-1633.7 1014.64,-1236.57 1013.46,-1126.41"/>
<polygon fill="black" stroke="black" points="1016.96,-1126.05 1013.34,-1116.1 1009.96,-1126.14 1016.96,-1126.05"/>
</g>
<!-- frases colgadas -->
<g id="node11" class="node"><title>frases colgadas</title>
<polygon fill="none" stroke="black" points="794,-1710 701,-1710 701,-1674 800,-1674 800,-1704 794,-1710"/>
<polyline fill="none" stroke="black" points="794,-1710 794,-1704 "/>
<polyline fill="none" stroke="black" points="800,-1704 794,-1704 "/>
<text text-anchor="middle" x="750.5" y="-1688.3" font-family="Times,serif" font-size="14.00">frases colgadas</text>
</g>
<!-- frases colgadas&#45;&gt;pej -->
<g id="edge10" class="edge"><title>frases colgadas&#45;&gt;pej</title>
<path fill="none" stroke="black" d="M800.222,-1698.96C840.366,-1701.73 895.893,-1698.24 929,-1665 1005.65,-1588.06 1012.66,-1230.12 1013.06,-1126.3"/>
<polygon fill="black" stroke="black" points="1016.56,-1126.26 1013.08,-1116.25 1009.56,-1126.25 1016.56,-1126.26"/>
</g>
<!-- cachunk -->
<g id="node12" class="node"><title>cachunk</title>
<polygon fill="none" stroke="black" points="775.5,-1656 719.5,-1656 719.5,-1620 781.5,-1620 781.5,-1650 775.5,-1656"/>
<polyline fill="none" stroke="black" points="775.5,-1656 775.5,-1650 "/>
<polyline fill="none" stroke="black" points="781.5,-1650 775.5,-1650 "/>
<text text-anchor="middle" x="750.5" y="-1634.3" font-family="Times,serif" font-size="14.00">cachunk</text>
</g>
<!-- cachunk&#45;&gt;pej -->
<g id="edge11" class="edge"><title>cachunk&#45;&gt;pej</title>
<path fill="none" stroke="black" d="M781.576,-1643.08C821.115,-1647.88 890.1,-1649.46 929,-1611 998.365,-1542.42 1010.48,-1223.88 1012.57,-1126.41"/>
<polygon fill="black" stroke="black" points="1016.07,-1126.22 1012.77,-1116.15 1009.08,-1126.08 1016.07,-1126.22"/>
</g>
<!-- pensar lo mismo que otra persona -->
<g id="node13" class="node"><title>pensar lo mismo que otra persona</title>
<polygon fill="none" stroke="black" points="845.5,-1602 649.5,-1602 649.5,-1566 851.5,-1566 851.5,-1596 845.5,-1602"/>
<polyline fill="none" stroke="black" points="845.5,-1602 845.5,-1596 "/>
<polyline fill="none" stroke="black" points="851.5,-1596 845.5,-1596 "/>
<text text-anchor="middle" x="750.5" y="-1580.3" font-family="Times,serif" font-size="14.00">pensar lo mismo que otra persona</text>
</g>
<!-- pensar lo mismo que otra persona&#45;&gt;pej -->
<g id="edge12" class="edge"><title>pensar lo mismo que otra persona&#45;&gt;pej</title>
<path fill="none" stroke="black" d="M851.828,-1589.49C880.02,-1585.98 908.532,-1576.86 929,-1557 991.221,-1496.62 1008.12,-1216.32 1011.98,-1126.07"/>
<polygon fill="black" stroke="black" points="1015.48,-1126.17 1012.39,-1116.04 1008.49,-1125.89 1015.48,-1126.17"/>
</g>
<!-- olvidarse cosas -->
<g id="node14" class="node"><title>olvidarse cosas</title>
<polygon fill="none" stroke="black" points="794,-1548 701,-1548 701,-1512 800,-1512 800,-1542 794,-1548"/>
<polyline fill="none" stroke="black" points="794,-1548 794,-1542 "/>
<polyline fill="none" stroke="black" points="800,-1542 794,-1542 "/>
<text text-anchor="middle" x="750.5" y="-1526.3" font-family="Times,serif" font-size="14.00">olvidarse cosas</text>
</g>
<!-- olvidarse cosas&#45;&gt;pej -->
<g id="edge13" class="edge"><title>olvidarse cosas&#45;&gt;pej</title>
<path fill="none" stroke="black" d="M800.14,-1536.49C839.958,-1538.91 895.065,-1535.16 929,-1503 983.991,-1450.88 1005.4,-1209.49 1011.22,-1126.28"/>
<polygon fill="black" stroke="black" points="1014.73,-1126.28 1011.92,-1116.06 1007.75,-1125.8 1014.73,-1126.28"/>
</g>
<!-- observar una coincidencia -->
<g id="node15" class="node"><title>observar una coincidencia</title>
<polygon fill="none" stroke="black" points="823.5,-1494 671.5,-1494 671.5,-1458 829.5,-1458 829.5,-1488 823.5,-1494"/>
<polyline fill="none" stroke="black" points="823.5,-1494 823.5,-1488 "/>
<polyline fill="none" stroke="black" points="829.5,-1488 823.5,-1488 "/>
<text text-anchor="middle" x="750.5" y="-1472.3" font-family="Times,serif" font-size="14.00">observar una coincidencia</text>
</g>
<!-- observar una coincidencia&#45;&gt;pej -->
<g id="edge14" class="edge"><title>observar una coincidencia&#45;&gt;pej</title>
<path fill="none" stroke="black" d="M829.709,-1482.53C864.113,-1481.17 902.612,-1473.26 929,-1449 976.811,-1405.04 1002.27,-1202.11 1010.23,-1126.5"/>
<polygon fill="black" stroke="black" points="1013.74,-1126.6 1011.28,-1116.3 1006.77,-1125.89 1013.74,-1126.6"/>
</g>
<!-- acordarse cosas -->
<g id="node16" class="node"><title>acordarse cosas</title>
<polygon fill="none" stroke="black" points="795,-1440 700,-1440 700,-1404 801,-1404 801,-1434 795,-1440"/>
<polyline fill="none" stroke="black" points="795,-1440 795,-1434 "/>
<polyline fill="none" stroke="black" points="801,-1434 795,-1434 "/>
<text text-anchor="middle" x="750.5" y="-1418.3" font-family="Times,serif" font-size="14.00">acordarse cosas</text>
</g>
<!-- acordarse cosas&#45;&gt;pej -->
<g id="edge15" class="edge"><title>acordarse cosas&#45;&gt;pej</title>
<path fill="none" stroke="black" d="M801.15,-1427.94C840.49,-1429.78 894.411,-1425.52 929,-1395 969.723,-1359.06 998.623,-1193.81 1008.89,-1126.57"/>
<polygon fill="black" stroke="black" points="1012.41,-1126.7 1010.43,-1116.3 1005.49,-1125.67 1012.41,-1126.7"/>
</g>
<!-- sorpresa -->
<g id="node17" class="node"><title>sorpresa</title>
<polygon fill="none" stroke="black" points="775.5,-1386 719.5,-1386 719.5,-1350 781.5,-1350 781.5,-1380 775.5,-1386"/>
<polyline fill="none" stroke="black" points="775.5,-1386 775.5,-1380 "/>
<polyline fill="none" stroke="black" points="781.5,-1380 775.5,-1380 "/>
<text text-anchor="middle" x="750.5" y="-1364.3" font-family="Times,serif" font-size="14.00">sorpresa</text>
</g>
<!-- sorpresa&#45;&gt;pej -->
<g id="edge16" class="edge"><title>sorpresa&#45;&gt;pej</title>
<path fill="none" stroke="black" d="M781.64,-1372.15C820.301,-1375.71 887.325,-1375.71 929,-1341 994.643,-1286.33 1009.08,-1177.59 1012.19,-1126.18"/>
<polygon fill="black" stroke="black" points="1015.69,-1126.28 1012.7,-1116.12 1008.7,-1125.93 1015.69,-1126.28"/>
</g>
<!-- seppo enojado -->
<g id="node18" class="node"><title>seppo enojado</title>
<polygon fill="none" stroke="black" points="792,-1332 703,-1332 703,-1296 798,-1296 798,-1326 792,-1332"/>
<polyline fill="none" stroke="black" points="792,-1332 792,-1326 "/>
<polyline fill="none" stroke="black" points="798,-1326 792,-1326 "/>
<text text-anchor="middle" x="750.5" y="-1310.3" font-family="Times,serif" font-size="14.00">seppo enojado</text>
</g>
<!-- seppo enojado&#45;&gt;pej -->
<g id="edge17" class="edge"><title>seppo enojado&#45;&gt;pej</title>
<path fill="none" stroke="black" d="M798.088,-1318.52C836.914,-1319.79 891.705,-1315.46 929,-1287 981.107,-1247.24 1001.61,-1168.1 1009.09,-1125.94"/>
<polygon fill="black" stroke="black" points="1012.54,-1126.5 1010.72,-1116.07 1005.64,-1125.36 1012.54,-1126.5"/>
</g>
<!-- estornudar -->
<g id="node19" class="node"><title>estornudar</title>
<polygon fill="none" stroke="black" points="781.5,-1278 713.5,-1278 713.5,-1242 787.5,-1242 787.5,-1272 781.5,-1278"/>
<polyline fill="none" stroke="black" points="781.5,-1278 781.5,-1272 "/>
<polyline fill="none" stroke="black" points="787.5,-1272 781.5,-1272 "/>
<text text-anchor="middle" x="750.5" y="-1256.3" font-family="Times,serif" font-size="14.00">estornudar</text>
</g>
<!-- estornudar&#45;&gt;pej -->
<g id="edge18" class="edge"><title>estornudar&#45;&gt;pej</title>
<path fill="none" stroke="black" d="M787.607,-1262.95C825.843,-1264.28 886.443,-1261.04 929,-1233 967.688,-1207.51 991.752,-1157.42 1003.74,-1125.94"/>
<polygon fill="black" stroke="black" points="1007.07,-1127.02 1007.21,-1116.42 1000.49,-1124.62 1007.07,-1127.02"/>
</g>
<!-- toser -->
<g id="node20" class="node"><title>toser</title>
<polygon fill="none" stroke="black" points="771.5,-1224 723.5,-1224 723.5,-1188 777.5,-1188 777.5,-1218 771.5,-1224"/>
<polyline fill="none" stroke="black" points="771.5,-1224 771.5,-1218 "/>
<polyline fill="none" stroke="black" points="777.5,-1218 771.5,-1218 "/>
<text text-anchor="middle" x="750.5" y="-1202.3" font-family="Times,serif" font-size="14.00">toser</text>
</g>
<!-- toser&#45;&gt;pej -->
<g id="edge19" class="edge"><title>toser&#45;&gt;pej</title>
<path fill="none" stroke="black" d="M777.648,-1206.86C813.622,-1207 879.541,-1203.45 929,-1179 954.829,-1166.23 977.884,-1142.65 993.276,-1124.21"/>
<polygon fill="black" stroke="black" points="996.223,-1126.14 999.792,-1116.16 990.781,-1121.73 996.223,-1126.14"/>
</g>
<!-- bocina -->
<g id="node21" class="node"><title>bocina</title>
<polygon fill="none" stroke="black" points="771.5,-1170 723.5,-1170 723.5,-1134 777.5,-1134 777.5,-1164 771.5,-1170"/>
<polyline fill="none" stroke="black" points="771.5,-1170 771.5,-1164 "/>
<polyline fill="none" stroke="black" points="777.5,-1164 771.5,-1164 "/>
<text text-anchor="middle" x="750.5" y="-1148.3" font-family="Times,serif" font-size="14.00">bocina</text>
</g>
<!-- bocina&#45;&gt;pej -->
<g id="edge20" class="edge"><title>bocina&#45;&gt;pej</title>
<path fill="none" stroke="black" d="M777.617,-1149.35C812.452,-1145.52 875.9,-1137.49 929,-1125 937.559,-1122.99 946.503,-1120.52 955.228,-1117.9"/>
<polygon fill="black" stroke="black" points="956.432,-1121.19 964.955,-1114.9 954.367,-1114.51 956.432,-1121.19"/>
</g>
<!-- pelotudeces -->
<g id="node22" class="node"><title>pelotudeces</title>
<polygon fill="none" stroke="black" points="784.5,-1116 710.5,-1116 710.5,-1080 790.5,-1080 790.5,-1110 784.5,-1116"/>
<polyline fill="none" stroke="black" points="784.5,-1116 784.5,-1110 "/>
<polyline fill="none" stroke="black" points="790.5,-1110 784.5,-1110 "/>
<text text-anchor="middle" x="750.5" y="-1094.3" font-family="Times,serif" font-size="14.00">pelotudeces</text>
</g>
<!-- pelotudeces&#45;&gt;pej -->
<g id="edge21" class="edge"><title>pelotudeces&#45;&gt;pej</title>
<path fill="none" stroke="black" d="M790.649,-1098C834.104,-1098 904.686,-1098 954.658,-1098"/>
<polygon fill="black" stroke="black" points="954.677,-1101.5 964.677,-1098 954.677,-1094.5 954.677,-1101.5"/>
</g>
<!-- roles -->
<g id="node23" class="node"><title>roles</title>
<polygon fill="none" stroke="black" points="889.5,-1062 605.5,-1062 605.5,-1026 895.5,-1026 895.5,-1056 889.5,-1062"/>
<polyline fill="none" stroke="black" points="889.5,-1062 889.5,-1056 "/>
<polyline fill="none" stroke="black" points="895.5,-1056 889.5,-1056 "/>
<text text-anchor="middle" x="750.5" y="-1040.3" font-family="Times,serif" font-size="14.00">pensar en los roles que toma la gente en la oficina</text>
</g>
<!-- roles&#45;&gt;pej -->
<g id="edge22" class="edge"><title>roles&#45;&gt;pej</title>
<path fill="none" stroke="black" d="M885.69,-1062.07C900.37,-1064.74 915.042,-1067.72 929,-1071 937.559,-1073.01 946.503,-1075.48 955.228,-1078.1"/>
<polygon fill="black" stroke="black" points="954.367,-1081.49 964.955,-1081.1 956.432,-1074.81 954.367,-1081.49"/>
</g>
<!-- seppo a secas -->
<g id="node24" class="node"><title>seppo a secas</title>
<polygon fill="none" stroke="black" points="789.5,-1008 705.5,-1008 705.5,-972 795.5,-972 795.5,-1002 789.5,-1008"/>
<polyline fill="none" stroke="black" points="789.5,-1008 789.5,-1002 "/>
<polyline fill="none" stroke="black" points="795.5,-1002 789.5,-1002 "/>
<text text-anchor="middle" x="750.5" y="-986.3" font-family="Times,serif" font-size="14.00">seppo a secas</text>
</g>
<!-- seppo a secas&#45;&gt;pej -->
<g id="edge23" class="edge"><title>seppo a secas&#45;&gt;pej</title>
<path fill="none" stroke="black" d="M795.663,-989.386C832.991,-990.535 886.946,-996.212 929,-1017 954.829,-1029.77 977.884,-1053.35 993.276,-1071.79"/>
<polygon fill="black" stroke="black" points="990.781,-1074.27 999.792,-1079.84 996.223,-1069.86 990.781,-1074.27"/>
</g>
<!-- bostezar -->
<g id="node25" class="node"><title>bostezar</title>
<polygon fill="none" stroke="black" points="494.5,-1278 438.5,-1278 438.5,-1242 500.5,-1242 500.5,-1272 494.5,-1278"/>
<polyline fill="none" stroke="black" points="494.5,-1278 494.5,-1272 "/>
<polyline fill="none" stroke="black" points="500.5,-1272 494.5,-1272 "/>
<text text-anchor="middle" x="469.5" y="-1256.3" font-family="Times,serif" font-size="14.00">bostezar</text>
</g>
<!-- bostezar&#45;&gt;estornudar -->
<g id="edge48" class="edge"><title>bostezar&#45;&gt;estornudar</title>
<path fill="none" stroke="black" d="M500.623,-1260C549.305,-1260 645.612,-1260 703.103,-1260"/>
<polygon fill="black" stroke="black" points="703.366,-1263.5 713.366,-1260 703.366,-1256.5 703.366,-1263.5"/>
</g>
<!-- chistes malos -->
<g id="node26" class="node"><title>chistes malos</title>
<polygon fill="none" stroke="black" points="789.5,-954 705.5,-954 705.5,-918 795.5,-918 795.5,-948 789.5,-954"/>
<polyline fill="none" stroke="black" points="789.5,-954 789.5,-948 "/>
<polyline fill="none" stroke="black" points="795.5,-948 789.5,-948 "/>
<text text-anchor="middle" x="750.5" y="-932.3" font-family="Times,serif" font-size="14.00">chistes malos</text>
</g>
<!-- chistes malos&#45;&gt;pej -->
<g id="edge24" class="edge"><title>chistes malos&#45;&gt;pej</title>
<path fill="none" stroke="black" d="M795.616,-932.847C833.916,-932.272 889.306,-936.847 929,-963 967.688,-988.49 991.752,-1038.58 1003.74,-1070.06"/>
<polygon fill="black" stroke="black" points="1000.49,-1071.38 1007.21,-1079.58 1007.07,-1068.98 1000.49,-1071.38"/>
</g>
<!-- pe -->
<g id="node27" class="node"><title>pe</title>
<polygon fill="none" stroke="black" points="813,-900 682,-900 682,-864 819,-864 819,-894 813,-900"/>
<polyline fill="none" stroke="black" points="813,-900 813,-894 "/>
<polyline fill="none" stroke="black" points="819,-894 813,-894 "/>
<text text-anchor="middle" x="750.5" y="-878.3" font-family="Times,serif" font-size="14.00">pronunciación extraña</text>
</g>
<!-- pe&#45;&gt;pej -->
<g id="edge25" class="edge"><title>pe&#45;&gt;pej</title>
<path fill="none" stroke="black" d="M819.036,-877.408C854.978,-878.374 898.024,-885.365 929,-909 981.107,-948.757 1001.61,-1027.9 1009.09,-1070.06"/>
<polygon fill="black" stroke="black" points="1005.64,-1070.64 1010.72,-1079.93 1012.54,-1069.5 1005.64,-1070.64"/>
</g>
<!-- pulgares bailarines -->
<g id="node28" class="node"><title>pulgares bailarines</title>
<polygon fill="none" stroke="black" points="804,-846 691,-846 691,-810 810,-810 810,-840 804,-846"/>
<polyline fill="none" stroke="black" points="804,-846 804,-840 "/>
<polyline fill="none" stroke="black" points="810,-840 804,-840 "/>
<text text-anchor="middle" x="750.5" y="-824.3" font-family="Times,serif" font-size="14.00">pulgares bailarines</text>
</g>
<!-- pulgares bailarines&#45;&gt;pej -->
<g id="edge26" class="edge"><title>pulgares bailarines&#45;&gt;pej</title>
<path fill="none" stroke="black" d="M810.051,-822.357C848.013,-821.903 896.307,-827.771 929,-855 994.643,-909.673 1009.08,-1018.41 1012.19,-1069.82"/>
<polygon fill="black" stroke="black" points="1008.7,-1070.07 1012.7,-1079.88 1015.69,-1069.72 1008.7,-1070.07"/>
</g>
<!-- estar a un paso -->
<g id="node29" class="node"><title>estar a un paso</title>
<polygon fill="none" stroke="black" points="793.5,-792 701.5,-792 701.5,-756 799.5,-756 799.5,-786 793.5,-792"/>
<polyline fill="none" stroke="black" points="793.5,-792 793.5,-786 "/>
<polyline fill="none" stroke="black" points="799.5,-786 793.5,-786 "/>
<text text-anchor="middle" x="750.5" y="-770.3" font-family="Times,serif" font-size="14.00">estar a un paso</text>
</g>
<!-- estar a un paso&#45;&gt;pej -->
<g id="edge27" class="edge"><title>estar a un paso&#45;&gt;pej</title>
<path fill="none" stroke="black" d="M799.563,-768.141C839.029,-766.11 893.943,-770.063 929,-801 969.723,-836.938 998.623,-1002.19 1008.89,-1069.43"/>
<polygon fill="black" stroke="black" points="1005.49,-1070.33 1010.43,-1079.7 1012.41,-1069.3 1005.49,-1070.33"/>
</g>
<!-- la oficina -->
<g id="node30" class="node"><title>la oficina</title>
<polygon fill="none" stroke="black" points="778.5,-738 716.5,-738 716.5,-702 784.5,-702 784.5,-732 778.5,-738"/>
<polyline fill="none" stroke="black" points="778.5,-738 778.5,-732 "/>
<polyline fill="none" stroke="black" points="784.5,-732 778.5,-732 "/>
<text text-anchor="middle" x="750.5" y="-716.3" font-family="Times,serif" font-size="14.00">la oficina</text>
</g>
<!-- la oficina&#45;&gt;pej -->
<g id="edge28" class="edge"><title>la oficina&#45;&gt;pej</title>
<path fill="none" stroke="black" d="M784.581,-714.987C824.132,-710.997 889.877,-711.03 929,-747 976.811,-790.957 1002.27,-993.891 1010.23,-1069.5"/>
<polygon fill="black" stroke="black" points="1006.77,-1070.11 1011.28,-1079.7 1013.74,-1069.4 1006.77,-1070.11"/>
</g>
<!-- dispersion -->
<g id="node31" class="node"><title>dispersion</title>
<polygon fill="none" stroke="black" points="780.5,-684 714.5,-684 714.5,-648 786.5,-648 786.5,-678 780.5,-684"/>
<polyline fill="none" stroke="black" points="780.5,-684 780.5,-678 "/>
<polyline fill="none" stroke="black" points="786.5,-678 780.5,-678 "/>
<text text-anchor="middle" x="750.5" y="-662.3" font-family="Times,serif" font-size="14.00">dispersion</text>
</g>
<!-- dispersion&#45;&gt;pej -->
<g id="edge29" class="edge"><title>dispersion&#45;&gt;pej</title>
<path fill="none" stroke="black" d="M786.53,-660.608C826.428,-656.606 890.993,-656.976 929,-693 983.991,-745.122 1005.4,-986.511 1011.22,-1069.72"/>
<polygon fill="black" stroke="black" points="1007.75,-1070.2 1011.92,-1079.94 1014.73,-1069.72 1007.75,-1070.2"/>
</g>
<!-- ambulancia -->
<g id="node32" class="node"><title>ambulancia</title>
<polygon fill="none" stroke="black" points="503.5,-1170 429.5,-1170 429.5,-1134 509.5,-1134 509.5,-1164 503.5,-1170"/>
<polyline fill="none" stroke="black" points="503.5,-1170 503.5,-1164 "/>
<polyline fill="none" stroke="black" points="509.5,-1164 503.5,-1164 "/>
<text text-anchor="middle" x="469.5" y="-1148.3" font-family="Times,serif" font-size="14.00">ambulancia</text>
</g>
<!-- ambulancia&#45;&gt;bocina -->
<g id="edge40" class="edge"><title>ambulancia&#45;&gt;bocina</title>
<path fill="none" stroke="black" d="M509.588,-1152C563.605,-1152 660.352,-1152 712.977,-1152"/>
<polygon fill="black" stroke="black" points="713.197,-1155.5 723.197,-1152 713.197,-1148.5 713.197,-1155.5"/>
</g>
<!-- esperar chistes malos -->
<g id="node33" class="node"><title>esperar chistes malos</title>
<polygon fill="none" stroke="black" points="530,-981 403,-981 403,-945 536,-945 536,-975 530,-981"/>
<polyline fill="none" stroke="black" points="530,-981 530,-975 "/>
<polyline fill="none" stroke="black" points="536,-975 530,-975 "/>
<text text-anchor="middle" x="469.5" y="-959.3" font-family="Times,serif" font-size="14.00">esperar chistes malos</text>
</g>
<!-- esperar chistes malos&#45;&gt;chistes malos -->
<g id="edge41" class="edge"><title>esperar chistes malos&#45;&gt;chistes malos</title>
<path fill="none" stroke="black" d="M536.266,-956.636C584.793,-951.939 650.026,-945.627 695.511,-941.225"/>
<polygon fill="black" stroke="black" points="695.86,-944.707 705.477,-940.26 695.186,-937.74 695.86,-944.707"/>
</g>
<!-- chiste de Ramiro -->
<g id="node34" class="node"><title>chiste de Ramiro</title>
<polygon fill="none" stroke="black" points="518.5,-927 414.5,-927 414.5,-891 524.5,-891 524.5,-921 518.5,-927"/>
<polyline fill="none" stroke="black" points="518.5,-927 518.5,-921 "/>
<polyline fill="none" stroke="black" points="524.5,-921 518.5,-921 "/>
<text text-anchor="middle" x="469.5" y="-905.3" font-family="Times,serif" font-size="14.00">chiste de Ramiro</text>
</g>
<!-- chiste de Ramiro&#45;&gt;chistes malos -->
<g id="edge42" class="edge"><title>chiste de Ramiro&#45;&gt;chistes malos</title>
<path fill="none" stroke="black" d="M524.625,-914.238C573.742,-918.991 645.803,-925.965 695.028,-930.728"/>
<polygon fill="black" stroke="black" points="694.878,-934.23 705.169,-931.71 695.552,-927.263 694.878,-934.23"/>
</g>
<!-- unchunk -->
<g id="node35" class="node"><title>unchunk</title>
<polygon fill="none" stroke="black" points="495,-1656 438,-1656 438,-1620 501,-1620 501,-1650 495,-1656"/>
<polyline fill="none" stroke="black" points="495,-1656 495,-1650 "/>
<polyline fill="none" stroke="black" points="501,-1650 495,-1650 "/>
<text text-anchor="middle" x="469.5" y="-1634.3" font-family="Times,serif" font-size="14.00">unchunk</text>
</g>
<!-- unchunk&#45;&gt;cachunk -->
<g id="edge43" class="edge"><title>unchunk&#45;&gt;cachunk</title>
<path fill="none" stroke="black" d="M501.156,-1638C551.69,-1638 652.489,-1638 708.891,-1638"/>
<polygon fill="black" stroke="black" points="709.217,-1641.5 719.217,-1638 709.217,-1634.5 709.217,-1641.5"/>
</g>
<!-- andar descalzo -->
<g id="node36" class="node"><title>andar descalzo</title>
<polygon fill="none" stroke="black" points="512,-90 421,-90 421,-54 518,-54 518,-84 512,-90"/>
<polyline fill="none" stroke="black" points="512,-90 512,-84 "/>
<polyline fill="none" stroke="black" points="518,-84 512,-84 "/>
<text text-anchor="middle" x="469.5" y="-68.3" font-family="Times,serif" font-size="14.00">andar descalzo</text>
</g>
<!-- seppo -->
<g id="node55" class="node"><title>seppo</title>
<polygon fill="none" stroke="black" points="771.5,-90 723.5,-90 723.5,-54 777.5,-54 777.5,-84 771.5,-90"/>
<polyline fill="none" stroke="black" points="771.5,-90 771.5,-84 "/>
<polyline fill="none" stroke="black" points="777.5,-84 771.5,-84 "/>
<text text-anchor="middle" x="750.5" y="-68.3" font-family="Times,serif" font-size="14.00">seppo</text>
</g>
<!-- andar descalzo&#45;&gt;seppo -->
<g id="edge44" class="edge"><title>andar descalzo&#45;&gt;seppo</title>
<path fill="none" stroke="black" d="M518.145,-72C573.504,-72 663.607,-72 713.459,-72"/>
<polygon fill="black" stroke="black" points="713.459,-75.5001 723.459,-72 713.459,-68.5001 713.459,-75.5001"/>
</g>
<!-- pin naranja -->
<g id="node37" class="node"><title>pin naranja</title>
<polygon fill="none" stroke="black" points="87.5,-90 16.5,-90 16.5,-54 93.5,-54 93.5,-84 87.5,-90"/>
<polyline fill="none" stroke="black" points="87.5,-90 87.5,-84 "/>
<polyline fill="none" stroke="black" points="93.5,-84 87.5,-84 "/>
<text text-anchor="middle" x="55" y="-68.3" font-family="Times,serif" font-size="14.00">pin naranja</text>
</g>
<!-- camiseta -->
<g id="node41" class="node"><title>camiseta</title>
<polygon fill="none" stroke="black" points="361,-90 146,-90 146,-54 367,-54 367,-84 361,-90"/>
<polyline fill="none" stroke="black" points="361,-90 361,-84 "/>
<polyline fill="none" stroke="black" points="367,-84 361,-84 "/>
<text text-anchor="middle" x="256.5" y="-68.3" font-family="Times,serif" font-size="14.00">camiseta de lucas (andando descalzo)</text>
</g>
<!-- pin naranja&#45;&gt;camiseta -->
<g id="edge45" class="edge"><title>pin naranja&#45;&gt;camiseta</title>
<path fill="none" stroke="black" d="M93.5244,-72C105.931,-72 120.477,-72 135.671,-72"/>
<polygon fill="black" stroke="black" points="135.733,-75.5001 145.733,-72 135.733,-68.5001 135.733,-75.5001"/>
</g>
<!-- dot -->
<g id="node38" class="node"><title>dot</title>
<polygon fill="none" stroke="black" points="771.5,-630 723.5,-630 723.5,-594 777.5,-594 777.5,-624 771.5,-630"/>
<polyline fill="none" stroke="black" points="771.5,-630 771.5,-624 "/>
<polyline fill="none" stroke="black" points="777.5,-624 771.5,-624 "/>
<text text-anchor="middle" x="750.5" y="-608.3" font-family="Times,serif" font-size="14.00">dot</text>
</g>
<!-- dot&#45;&gt;pej -->
<g id="edge34" class="edge"><title>dot&#45;&gt;pej</title>
<path fill="none" stroke="black" d="M777.533,-607.519C816.147,-602.497 888.399,-599.601 929,-639 991.221,-699.379 1008.12,-979.681 1011.98,-1069.93"/>
<polygon fill="black" stroke="black" points="1008.49,-1070.11 1012.39,-1079.96 1015.48,-1069.83 1008.49,-1070.11"/>
</g>
<!-- sl -->
<g id="node39" class="node"><title>sl</title>
<polygon fill="none" stroke="black" points="771.5,-576 723.5,-576 723.5,-540 777.5,-540 777.5,-570 771.5,-576"/>
<polyline fill="none" stroke="black" points="771.5,-576 771.5,-570 "/>
<polyline fill="none" stroke="black" points="777.5,-570 771.5,-570 "/>
<text text-anchor="middle" x="750.5" y="-554.3" font-family="Times,serif" font-size="14.00">sl</text>
</g>
<!-- sl&#45;&gt;pej -->
<g id="edge35" class="edge"><title>sl&#45;&gt;pej</title>
<path fill="none" stroke="black" d="M777.627,-553.423C816.363,-548.277 888.77,-545.223 929,-585 998.365,-653.582 1010.48,-972.125 1012.57,-1069.59"/>
<polygon fill="black" stroke="black" points="1009.08,-1069.92 1012.77,-1079.85 1016.07,-1069.78 1009.08,-1069.92"/>
</g>
<!-- rc -->
<g id="node40" class="node"><title>rc</title>
<polygon fill="none" stroke="black" points="523.5,-630 409.5,-630 409.5,-594 529.5,-594 529.5,-624 523.5,-630"/>
<polyline fill="none" stroke="black" points="523.5,-630 523.5,-624 "/>
<polyline fill="none" stroke="black" points="529.5,-624 523.5,-624 "/>
<text text-anchor="middle" x="469.5" y="-608.3" font-family="Times,serif" font-size="14.00">referencias cíclicas</text>
</g>
<!-- rc&#45;&gt;dot -->
<g id="edge50" class="edge"><title>rc&#45;&gt;dot</title>
<path fill="none" stroke="black" d="M529.669,-612C585.169,-612 666.404,-612 713.006,-612"/>
<polygon fill="black" stroke="black" points="713.237,-615.5 723.237,-612 713.237,-608.5 713.237,-615.5"/>
</g>
<!-- camiseta&#45;&gt;andar descalzo -->
<g id="edge46" class="edge"><title>camiseta&#45;&gt;andar descalzo</title>
<path fill="none" stroke="black" d="M367.017,-72C382.13,-72 397.133,-72 410.783,-72"/>
<polygon fill="black" stroke="black" points="410.937,-75.5001 420.937,-72 410.937,-68.5001 410.937,-75.5001"/>
</g>
<!-- lcdtm -->
<g id="node42" class="node"><title>lcdtm</title>
<polygon fill="none" stroke="black" points="813,-522 682,-522 682,-486 819,-486 819,-516 813,-522"/>
<polyline fill="none" stroke="black" points="813,-522 813,-516 "/>
<polyline fill="none" stroke="black" points="819,-516 813,-516 "/>
<text text-anchor="middle" x="750.5" y="-500.3" font-family="Times,serif" font-size="14.00">la concha de tu madre</text>
</g>
<!-- lcdtm&#45;&gt;pej -->
<g id="edge31" class="edge"><title>lcdtm&#45;&gt;pej</title>
<path fill="none" stroke="black" d="M819.132,-496.3C856.467,-495.983 900.842,-502.733 929,-531 1005.65,-607.944 1012.66,-965.882 1013.06,-1069.7"/>
<polygon fill="black" stroke="black" points="1009.56,-1069.75 1013.08,-1079.75 1016.56,-1069.74 1009.56,-1069.75"/>
</g>
<!-- bomberos -->
<g id="node43" class="node"><title>bomberos</title>
<polygon fill="none" stroke="black" points="286,-1170 221,-1170 221,-1134 292,-1134 292,-1164 286,-1170"/>
<polyline fill="none" stroke="black" points="286,-1170 286,-1164 "/>
<polyline fill="none" stroke="black" points="292,-1164 286,-1164 "/>
<text text-anchor="middle" x="256.5" y="-1148.3" font-family="Times,serif" font-size="14.00">bomberos</text>
</g>
<!-- bomberos&#45;&gt;ambulancia -->
<g id="edge39" class="edge"><title>bomberos&#45;&gt;ambulancia</title>
<path fill="none" stroke="black" d="M292.342,-1152C326.941,-1152 380.303,-1152 419.232,-1152"/>
<polygon fill="black" stroke="black" points="419.299,-1155.5 429.299,-1152 419.299,-1148.5 419.299,-1155.5"/>
</g>
<!-- int -->
<g id="node44" class="node"><title>int</title>
<polygon fill="none" stroke="black" points="509,-468 424,-468 424,-432 515,-432 515,-462 509,-468"/>
<polyline fill="none" stroke="black" points="509,-468 509,-462 "/>
<polyline fill="none" stroke="black" points="515,-462 509,-462 "/>
<text text-anchor="middle" x="469.5" y="-446.3" font-family="Times,serif" font-size="14.00">interconexión</text>
</g>
<!-- asoc -->
<g id="node45" class="node"><title>asoc</title>
<polygon fill="none" stroke="black" points="781.5,-468 713.5,-468 713.5,-432 787.5,-432 787.5,-462 781.5,-468"/>
<polyline fill="none" stroke="black" points="781.5,-468 781.5,-462 "/>
<polyline fill="none" stroke="black" points="787.5,-462 781.5,-462 "/>
<text text-anchor="middle" x="750.5" y="-446.3" font-family="Times,serif" font-size="14.00">asociación</text>
</g>
<!-- int&#45;&gt;asoc -->
<g id="edge47" class="edge"><title>int&#45;&gt;asoc</title>
<path fill="none" stroke="black" d="M515.017,-450C566.507,-450 650.877,-450 703.138,-450"/>
<polygon fill="black" stroke="black" points="703.143,-453.5 713.142,-450 703.142,-446.5 703.143,-453.5"/>
</g>
<!-- asoc&#45;&gt;pej -->
<g id="edge32" class="edge"><title>asoc&#45;&gt;pej</title>
<path fill="none" stroke="black" d="M787.708,-444.065C828.083,-439.707 892.497,-439.889 929,-477 1012.9,-562.297 1014.64,-959.426 1013.46,-1069.59"/>
<polygon fill="black" stroke="black" points="1009.96,-1069.86 1013.34,-1079.9 1016.96,-1069.95 1009.96,-1069.86"/>
</g>
<!-- mv -->
<g id="node46" class="node"><title>mv</title>
<polygon fill="none" stroke="black" points="799,-414 696,-414 696,-378 805,-378 805,-408 799,-414"/>
<polyline fill="none" stroke="black" points="799,-414 799,-408 "/>
<polyline fill="none" stroke="black" points="805,-408 799,-408 "/>
<text text-anchor="middle" x="750.5" y="-392.3" font-family="Times,serif" font-size="14.00">Mariano Vicente</text>
</g>
<!-- mv&#45;&gt;pej -->
<g id="edge33" class="edge"><title>mv&#45;&gt;pej</title>
<path fill="none" stroke="black" d="M805.307,-388.534C845.083,-386.28 897.586,-390.722 929,-423 974.921,-470.185 1004.58,-947.438 1011.46,-1069.63"/>
<polygon fill="black" stroke="black" points="1007.97,-1069.91 1012.02,-1079.7 1014.96,-1069.52 1007.97,-1069.91"/>
</g>
<!-- buffalo -->
<g id="node47" class="node"><title>buffalo</title>
<polygon fill="none" stroke="black" points="923,-360 572,-360 572,-324 929,-324 929,-354 923,-360"/>
<polyline fill="none" stroke="black" points="923,-360 923,-354 "/>
<polyline fill="none" stroke="black" points="929,-354 923,-354 "/>
<text text-anchor="middle" x="750.5" y="-338.3" font-family="Times,serif" font-size="14.00">Buffalo buffalo buffalo buffalo buffalo buffalo buffalo buffalo</text>
</g>
<!-- buffalo&#45;&gt;pej -->
<g id="edge36" class="edge"><title>buffalo&#45;&gt;pej</title>
<path fill="none" stroke="black" d="M918.98,-360.064C922.511,-362.775 925.863,-365.747 929,-369 978.573,-420.403 1005.75,-940.977 1011.73,-1069.45"/>
<polygon fill="black" stroke="black" points="1008.24,-1069.84 1012.2,-1079.67 1015.24,-1069.52 1008.24,-1069.84"/>
</g>
<!-- fais -->
<g id="node48" class="node"><title>fais</title>
<polygon fill="none" stroke="black" points="104,-306 0,-306 0,-270 110,-270 110,-300 104,-306"/>
<polyline fill="none" stroke="black" points="104,-306 104,-300 "/>
<polyline fill="none" stroke="black" points="110,-300 104,-300 "/>
<text text-anchor="middle" x="55" y="-284.3" font-family="Times,serif" font-size="14.00">Free as in speech</text>
</g>
<!-- faib -->
<g id="node49" class="node"><title>faib</title>
<polygon fill="none" stroke="black" points="299,-306 208,-306 208,-270 305,-270 305,-300 299,-306"/>
<polyline fill="none" stroke="black" points="299,-306 299,-300 "/>
<polyline fill="none" stroke="black" points="305,-300 299,-300 "/>
<text text-anchor="middle" x="256.5" y="-284.3" font-family="Times,serif" font-size="14.00">Free as in beer</text>
</g>
<!-- fais&#45;&gt;faib -->
<g id="edge51" class="edge"><title>fais&#45;&gt;faib</title>
<path fill="none" stroke="black" d="M110.251,-288C137.261,-288 169.936,-288 197.449,-288"/>
<polygon fill="black" stroke="black" points="197.719,-291.5 207.719,-288 197.719,-284.5 197.719,-291.5"/>
</g>
<!-- faibe -->
<g id="node50" class="node"><title>faibe</title>
<polygon fill="none" stroke="black" points="512,-306 421,-306 421,-270 518,-270 518,-300 512,-306"/>
<polyline fill="none" stroke="black" points="512,-306 512,-300 "/>
<polyline fill="none" stroke="black" points="518,-300 512,-300 "/>
<text text-anchor="middle" x="469.5" y="-284.3" font-family="Times,serif" font-size="14.00">Free as in bear</text>
</g>
<!-- faib&#45;&gt;faibe -->
<g id="edge52" class="edge"><title>faib&#45;&gt;faibe</title>
<path fill="none" stroke="black" d="M305.116,-288C336.399,-288 377.517,-288 410.677,-288"/>
<polygon fill="black" stroke="black" points="410.693,-291.5 420.693,-288 410.693,-284.5 410.693,-291.5"/>
</g>
<!-- wb -->
<g id="node51" class="node"><title>wb</title>
<polygon fill="none" stroke="black" points="783,-306 712,-306 712,-270 789,-270 789,-300 783,-306"/>
<polyline fill="none" stroke="black" points="783,-306 783,-300 "/>
<polyline fill="none" stroke="black" points="789,-300 783,-300 "/>
<text text-anchor="middle" x="750.5" y="-284.3" font-family="Times,serif" font-size="14.00">White bear</text>
</g>
<!-- faibe&#45;&gt;wb -->
<g id="edge53" class="edge"><title>faibe&#45;&gt;wb</title>
<path fill="none" stroke="black" d="M518.145,-288C569.398,-288 650.43,-288 701.731,-288"/>
<polygon fill="black" stroke="black" points="701.891,-291.5 711.891,-288 701.891,-284.5 701.891,-291.5"/>
</g>
<!-- wb&#45;&gt;pej -->
<g id="edge54" class="edge"><title>wb&#45;&gt;pej</title>
<path fill="none" stroke="black" d="M789.362,-281.723C829.984,-277.365 893.443,-277.84 929,-315 982.265,-370.666 1006.85,-935.374 1011.97,-1069.52"/>
<polygon fill="black" stroke="black" points="1008.48,-1069.93 1012.36,-1079.79 1015.48,-1069.67 1008.48,-1069.93"/>
</g>
<!-- comecoco -->
<g id="node52" class="node"><title>comecoco</title>
<polygon fill="none" stroke="black" points="802.5,-252 692.5,-252 692.5,-216 808.5,-216 808.5,-246 802.5,-252"/>
<polyline fill="none" stroke="black" points="802.5,-252 802.5,-246 "/>
<polyline fill="none" stroke="black" points="808.5,-246 802.5,-246 "/>
<text text-anchor="middle" x="750.5" y="-230.3" font-family="Times,serif" font-size="14.00">comerse la cabeza</text>
</g>
<!-- comecoco&#45;&gt;pej -->
<g id="edge37" class="edge"><title>comecoco&#45;&gt;pej</title>
<path fill="none" stroke="black" d="M808.868,-226.143C848.312,-224.222 898.831,-229.254 929,-261 985.935,-320.911 1007.86,-929.327 1012.17,-1069.36"/>
<polygon fill="black" stroke="black" points="1008.68,-1069.8 1012.48,-1079.69 1015.68,-1069.59 1008.68,-1069.8"/>
</g>
<!-- palabras -->
<g id="node53" class="node"><title>palabras</title>
<polygon fill="none" stroke="black" points="800.5,-198 694.5,-198 694.5,-162 806.5,-162 806.5,-192 800.5,-198"/>
<polyline fill="none" stroke="black" points="800.5,-198 800.5,-192 "/>
<polyline fill="none" stroke="black" points="806.5,-192 800.5,-192 "/>
<text text-anchor="middle" x="750.5" y="-176.3" font-family="Times,serif" font-size="14.00">juego de palabras</text>
</g>
<!-- palabras&#45;&gt;pej -->
<g id="edge38" class="edge"><title>palabras&#45;&gt;pej</title>
<path fill="none" stroke="black" d="M806.83,-172.198C846.594,-169.969 898.392,-174.597 929,-207 989.635,-271.191 1008.82,-923.969 1012.36,-1069.39"/>
<polygon fill="black" stroke="black" points="1008.87,-1069.79 1012.6,-1079.7 1015.86,-1069.62 1008.87,-1069.79"/>
</g>
<!-- cantito -->
<g id="node54" class="node"><title>cantito</title>
<polygon fill="none" stroke="black" points="801.5,-144 693.5,-144 693.5,-108 807.5,-108 807.5,-138 801.5,-144"/>
<polyline fill="none" stroke="black" points="801.5,-144 801.5,-138 "/>
<polyline fill="none" stroke="black" points="807.5,-138 801.5,-138 "/>
<text text-anchor="middle" x="750.5" y="-122.3" font-family="Times,serif" font-size="14.00">Cantito / bailecito</text>
</g>
<!-- cantito&#45;&gt;pej -->
<g id="edge55" class="edge"><title>cantito&#45;&gt;pej</title>
<path fill="none" stroke="black" d="M807.717,-118.104C847.394,-115.963 898.692,-120.742 929,-153 993.367,-221.508 1009.73,-919.308 1012.52,-1069.58"/>
<polygon fill="black" stroke="black" points="1009.03,-1069.88 1012.71,-1079.82 1016.03,-1069.76 1009.03,-1069.88"/>
</g>
<!-- seppo&#45;&gt;pej -->
<g id="edge30" class="edge"><title>seppo&#45;&gt;pej</title>
<path fill="none" stroke="black" d="M777.707,-67.0769C816.885,-61.3977 890.253,-57.5633 929,-99 997.058,-171.782 1010.57,-913.764 1012.67,-1069.44"/>
<polygon fill="black" stroke="black" points="1009.17,-1069.67 1012.8,-1079.62 1016.17,-1069.58 1009.17,-1069.67"/>
</g>
<!-- 42 -->
<g id="node56" class="node"><title>42</title>
<polygon fill="none" stroke="black" points="490.5,-1440 442.5,-1440 442.5,-1404 496.5,-1404 496.5,-1434 490.5,-1440"/>
<polyline fill="none" stroke="black" points="490.5,-1440 490.5,-1434 "/>
<polyline fill="none" stroke="black" points="496.5,-1434 490.5,-1434 "/>
<text text-anchor="middle" x="469.5" y="-1418.3" font-family="Times,serif" font-size="14.00">42</text>
</g>
<!-- 42&#45;&gt;acordarse cosas -->
<g id="edge49" class="edge"><title>42&#45;&gt;acordarse cosas</title>
<path fill="none" stroke="black" d="M496.748,-1422C540.603,-1422 629.851,-1422 689.68,-1422"/>
<polygon fill="black" stroke="black" points="689.754,-1425.5 699.754,-1422 689.754,-1418.5 689.754,-1425.5"/>
</g>
<!-- plum -->
<g id="node57" class="node"><title>plum</title>
<polygon fill="none" stroke="black" points="490.5,-36 442.5,-36 442.5,-0 496.5,-0 496.5,-30 490.5,-36"/>
<polyline fill="none" stroke="black" points="490.5,-36 490.5,-30 "/>
<polyline fill="none" stroke="black" points="496.5,-30 490.5,-30 "/>
<text text-anchor="middle" x="469.5" y="-14.3" font-family="Times,serif" font-size="14.00">plum</text>
</g>
<!-- teacher plum -->
<g id="node58" class="node"><title>teacher plum</title>
<polygon fill="none" stroke="black" points="788.5,-36 706.5,-36 706.5,-0 794.5,-0 794.5,-30 788.5,-36"/>
<polyline fill="none" stroke="black" points="788.5,-36 788.5,-30 "/>
<polyline fill="none" stroke="black" points="794.5,-30 788.5,-30 "/>
<text text-anchor="middle" x="750.5" y="-14.3" font-family="Times,serif" font-size="14.00">teacher plum</text>
</g>
<!-- plum&#45;&gt;teacher plum -->
<g id="edge56" class="edge"><title>plum&#45;&gt;teacher plum</title>
<path fill="none" stroke="black" d="M496.748,-18C542.176,-18 636.311,-18 696.001,-18"/>
<polygon fill="black" stroke="black" points="696.362,-21.5001 706.362,-18 696.362,-14.5001 696.362,-21.5001"/>
</g>
<!-- teacher plum&#45;&gt;pej -->
<g id="edge57" class="edge"><title>teacher plum&#45;&gt;pej</title>
<path fill="none" stroke="black" d="M794.866,-10.9943C835.692,-7.11858 895.44,-8.9555 929,-45 1000.78,-122.089 1011.38,-908.841 1012.8,-1069.46"/>
<polygon fill="black" stroke="black" points="1009.3,-1069.95 1012.88,-1079.92 1016.3,-1069.89 1009.3,-1069.95"/>
</g>
</g>
</svg>
